<?xml version="1.0" encoding="utf-8" standalone="no"?>
<!DOCTYPE svg PUBLIC "-//W3C//DTD SVG 1.1//EN"
  "http://www.w3.org/Graphics/SVG/1.1/DTD/svg11.dtd">
<!-- Created with matplotlib (http://matplotlib.org/) -->
<svg height="360pt" version="1.1" viewBox="0 0 504 360" width="504pt" xmlns="http://www.w3.org/2000/svg" xmlns:xlink="http://www.w3.org/1999/xlink">
 <defs>
  <style type="text/css">
*{stroke-linecap:butt;stroke-linejoin:round;}
  </style>
 </defs>
 <g id="figure_1">
  <g id="patch_1">
   <path d="M 0 360 
L 504 360 
L 504 0 
L 0 0 
z
" style="fill:#ffffff;"/>
  </g>
  <g id="axes_1">
   <g id="patch_2">
    <path d="M 52.28 299.72 
L 483.22 299.72 
L 483.22 37.28 
L 52.28 37.28 
z
" style="fill:#ffffff;"/>
   </g>
   <g id="patch_3">
    <path clip-path="url(#p50c7778f39)" d="M 52.28 299.72 
L 95.374 299.72 
L 95.374 296.611442 
L 52.28 296.611442 
z
" style="fill:#1f77b4;stroke:#000000;stroke-linejoin:miter;"/>
   </g>
   <g id="patch_4">
    <path clip-path="url(#p50c7778f39)" d="M 95.374 299.72 
L 138.468 299.72 
L 138.468 282.622932 
L 95.374 282.622932 
z
" style="fill:#1f77b4;stroke:#000000;stroke-linejoin:miter;"/>
   </g>
   <g id="patch_5">
    <path clip-path="url(#p50c7778f39)" d="M 138.468 299.72 
L 181.562 299.72 
L 181.562 211.1261 
L 138.468 211.1261 
z
" style="fill:#1f77b4;stroke:#000000;stroke-linejoin:miter;"/>
   </g>
   <g id="patch_6">
    <path clip-path="url(#p50c7778f39)" d="M 181.562 299.72 
L 224.656 299.72 
L 224.656 86.783784 
L 181.562 86.783784 
z
" style="fill:#1f77b4;stroke:#000000;stroke-linejoin:miter;"/>
   </g>
   <g id="patch_7">
    <path clip-path="url(#p50c7778f39)" d="M 224.656 299.72 
L 267.75 299.72 
L 267.75 61.138182 
L 224.656 61.138182 
z
" style="fill:#1f77b4;stroke:#000000;stroke-linejoin:miter;"/>
   </g>
   <g id="patch_8">
    <path clip-path="url(#p50c7778f39)" d="M 267.75 299.72 
L 310.844 299.72 
L 310.844 153.617779 
L 267.75 153.617779 
z
" style="fill:#1f77b4;stroke:#000000;stroke-linejoin:miter;"/>
   </g>
   <g id="patch_9">
    <path clip-path="url(#p50c7778f39)" d="M 310.844 299.72 
L 353.938 299.72 
L 353.938 240.6574 
L 310.844 240.6574 
z
" style="fill:#1f77b4;stroke:#000000;stroke-linejoin:miter;"/>
   </g>
   <g id="patch_10">
    <path clip-path="url(#p50c7778f39)" d="M 353.938 299.72 
L 397.032 299.72 
L 397.032 289.617187 
L 353.938 289.617187 
z
" style="fill:#1f77b4;stroke:#000000;stroke-linejoin:miter;"/>
   </g>
   <g id="patch_11">
    <path clip-path="url(#p50c7778f39)" d="M 397.032 299.72 
L 440.126 299.72 
L 440.126 298.942861 
L 397.032 298.942861 
z
" style="fill:#1f77b4;stroke:#000000;stroke-linejoin:miter;"/>
   </g>
   <g id="patch_12">
    <path clip-path="url(#p50c7778f39)" d="M 440.126 299.72 
L 483.22 299.72 
L 483.22 298.942861 
L 440.126 298.942861 
z
" style="fill:#1f77b4;stroke:#000000;stroke-linejoin:miter;"/>
   </g>
   <g id="matplotlib.axis_1">
    <g id="xtick_1">
     <g id="line2d_1">
      <defs>
       <path d="M 0 0 
L 0 3.5 
" id="mfe6260a4e6" style="stroke:#000000;stroke-width:0.8;"/>
      </defs>
      <g>
       <use style="stroke:#000000;stroke-width:0.8;" x="95.374" xlink:href="#mfe6260a4e6" y="299.72"/>
      </g>
     </g>
     <g id="text_1">
      <!-- 140 -->
      <defs>
       <path d="M 21.40625 70 
Q 22.5 69.90625 23.25 69.046875 
Q 24 68.203125 24 67 
L 24 3 
Q 24 1.703125 23.046875 0.84375 
Q 22.09375 0 20.703125 0 
Q 19.40625 0 18.5 0.84375 
Q 17.59375 1.703125 17.59375 3 
L 17.59375 61.5 
L 5.09375 54.09375 
Q 4.40625 53.703125 3.703125 53.703125 
Q 2.40625 53.703125 1.453125 54.703125 
Q 0.5 55.703125 0.5 56.90625 
Q 0.5 57.59375 0.953125 58.296875 
Q 1.40625 59 2.09375 59.40625 
L 19 69.59375 
Q 20 70.203125 21.40625 70 
z
" id="Quicksand-Regular-31"/>
       <path d="M 48.5 27.203125 
Q 49.703125 27.203125 50.546875 26.390625 
Q 51.40625 25.59375 51.40625 24.40625 
Q 51.40625 23.203125 50.546875 22.390625 
Q 49.703125 21.59375 48.5 21.59375 
L 41.796875 21.59375 
L 41.796875 3 
Q 41.796875 1.703125 40.890625 0.84375 
Q 40 0 38.703125 0 
Q 37.40625 0 36.59375 0.84375 
Q 35.796875 1.703125 35.796875 3 
L 35.796875 21.59375 
L 6.40625 21.59375 
Q 5.203125 21.59375 4.296875 22.546875 
Q 3.40625 23.5 3.40625 24.703125 
Q 3.40625 25.90625 4.09375 26.703125 
L 36.296875 68.796875 
Q 37.09375 70 38.796875 70 
Q 40.09375 70 40.9375 69.140625 
Q 41.796875 68.296875 41.796875 67 
L 41.796875 27.203125 
L 48.5 27.203125 
z
M 11.59375 27.203125 
L 35.796875 27.203125 
L 35.796875 59.203125 
z
" id="Quicksand-Regular-34"/>
       <path d="M 29.703125 -1 
Q 21.796875 -1 16.390625 3.703125 
Q 11 8.40625 8.25 16.546875 
Q 5.5 24.703125 5.5 35 
Q 5.5 45.40625 8.203125 53.5 
Q 10.90625 61.59375 16.34375 66.296875 
Q 21.796875 71 29.703125 71 
Q 37.59375 71 43.046875 66.34375 
Q 48.5 61.703125 51.25 53.546875 
Q 54 45.40625 54 35 
Q 54 24.703125 51.25 16.546875 
Q 48.5 8.40625 43.046875 3.703125 
Q 37.59375 -1 29.703125 -1 
z
M 29.703125 5.203125 
Q 38.296875 5.203125 42.9375 13.25 
Q 47.59375 21.296875 47.59375 35 
Q 47.59375 48.796875 42.9375 56.84375 
Q 38.296875 64.90625 29.703125 64.90625 
Q 21.203125 64.90625 16.546875 56.84375 
Q 11.90625 48.796875 11.90625 35 
Q 11.90625 21.296875 16.546875 13.25 
Q 21.203125 5.203125 29.703125 5.203125 
z
" id="Quicksand-Regular-30"/>
      </defs>
      <g transform="translate(83.50275 318.56)scale(0.16 -0.16)">
       <use xlink:href="#Quicksand-Regular-31"/>
       <use x="33.299988" xlink:href="#Quicksand-Regular-34"/>
       <use x="88.899979" xlink:href="#Quicksand-Regular-30"/>
      </g>
     </g>
    </g>
    <g id="xtick_2">
     <g id="line2d_2">
      <g>
       <use style="stroke:#000000;stroke-width:0.8;" x="181.562" xlink:href="#mfe6260a4e6" y="299.72"/>
      </g>
     </g>
     <g id="text_2">
      <!-- 160 -->
      <defs>
       <path d="M 29.703125 44.296875 
Q 35.59375 44.296875 40.34375 41.09375 
Q 45.09375 37.90625 47.75 32.59375 
Q 50.40625 27.296875 50.40625 21.40625 
Q 50.40625 15.5 47.546875 10.34375 
Q 44.703125 5.203125 39.703125 2.09375 
Q 34.703125 -1 28.5 -1 
Q 21 -1 15.796875 2.5 
Q 10.59375 6 8.046875 11.703125 
Q 5.5 17.40625 5.5 24 
Q 5.5 32.5 9.09375 42.25 
Q 12.703125 52 19.59375 60.140625 
Q 26.5 68.296875 36 71.90625 
Q 36.796875 72.09375 37.296875 72.09375 
Q 38.59375 72.09375 39.5 71.296875 
Q 40.40625 70.5 40.40625 69 
Q 40.40625 66.90625 38 66.09375 
Q 30 62.796875 22.953125 54.4375 
Q 15.90625 46.09375 13.296875 36.703125 
Q 16.296875 40.203125 20.546875 42.25 
Q 24.796875 44.296875 29.703125 44.296875 
z
M 28.296875 4.796875 
Q 35.296875 4.796875 39.796875 9.4375 
Q 44.296875 14.09375 44.296875 21.40625 
Q 44.296875 25.90625 42.4375 29.796875 
Q 40.59375 33.703125 37.09375 36.09375 
Q 33.59375 38.5 28.796875 38.5 
Q 23.59375 38.5 19.6875 36.140625 
Q 15.796875 33.796875 13.6875 29.84375 
Q 11.59375 25.90625 11.59375 21.09375 
Q 11.59375 16.703125 13.59375 13 
Q 15.59375 9.296875 19.390625 7.046875 
Q 23.203125 4.796875 28.296875 4.796875 
z
" id="Quicksand-Regular-36"/>
      </defs>
      <g transform="translate(169.842 318.56)scale(0.16 -0.16)">
       <use xlink:href="#Quicksand-Regular-31"/>
       <use x="33.299988" xlink:href="#Quicksand-Regular-36"/>
       <use x="86.999985" xlink:href="#Quicksand-Regular-30"/>
      </g>
     </g>
    </g>
    <g id="xtick_3">
     <g id="line2d_3">
      <g>
       <use style="stroke:#000000;stroke-width:0.8;" x="267.75" xlink:href="#mfe6260a4e6" y="299.72"/>
      </g>
     </g>
     <g id="text_3">
      <!-- 180 -->
      <defs>
       <path d="M 38.40625 35.59375 
Q 43.40625 33.203125 46.546875 28.75 
Q 49.703125 24.296875 49.703125 18.703125 
Q 49.703125 13.40625 46.84375 8.90625 
Q 44 4.40625 39.046875 1.796875 
Q 34.09375 -0.796875 28.203125 -0.796875 
Q 22.296875 -0.796875 17.390625 1.796875 
Q 12.5 4.40625 9.640625 8.90625 
Q 6.796875 13.40625 6.796875 18.703125 
Q 6.796875 24.5 9.890625 28.796875 
Q 13 33.09375 17.796875 35.5 
Q 13.796875 37.59375 11.09375 41.75 
Q 8.40625 45.90625 8.40625 51 
Q 8.40625 56.296875 11.046875 60.640625 
Q 13.703125 65 18.25 67.5 
Q 22.796875 70 28.203125 70 
Q 33.59375 70 38.140625 67.5 
Q 42.703125 65 45.296875 60.640625 
Q 47.90625 56.296875 47.90625 51 
Q 47.90625 45.796875 45.15625 41.796875 
Q 42.40625 37.796875 38.40625 35.59375 
z
M 28.203125 64.296875 
Q 22.09375 64.296875 18.296875 60.59375 
Q 14.5 56.90625 14.5 51 
Q 14.5 47.09375 16.390625 44.046875 
Q 18.296875 41 21.4375 39.296875 
Q 24.59375 37.59375 28.203125 37.59375 
Q 31.796875 37.59375 34.9375 39.296875 
Q 38.09375 41 39.9375 44.046875 
Q 41.796875 47.09375 41.796875 51 
Q 41.796875 56.90625 38 60.59375 
Q 34.203125 64.296875 28.203125 64.296875 
z
M 28.203125 5 
Q 35 5 39.296875 8.84375 
Q 43.59375 12.703125 43.59375 18.703125 
Q 43.59375 22.59375 41.5 25.796875 
Q 39.40625 29 35.84375 30.84375 
Q 32.296875 32.703125 28.203125 32.703125 
Q 24.09375 32.703125 20.59375 30.84375 
Q 17.09375 29 15 25.796875 
Q 12.90625 22.59375 12.90625 18.703125 
Q 12.90625 12.703125 17.15625 8.84375 
Q 21.40625 5 28.203125 5 
z
" id="Quicksand-Regular-38"/>
      </defs>
      <g transform="translate(255.80625 318.56)scale(0.16 -0.16)">
       <use xlink:href="#Quicksand-Regular-31"/>
       <use x="33.299988" xlink:href="#Quicksand-Regular-38"/>
       <use x="89.799973" xlink:href="#Quicksand-Regular-30"/>
      </g>
     </g>
    </g>
    <g id="xtick_4">
     <g id="line2d_4">
      <g>
       <use style="stroke:#000000;stroke-width:0.8;" x="353.938" xlink:href="#mfe6260a4e6" y="299.72"/>
      </g>
     </g>
     <g id="text_4">
      <!-- 200 -->
      <defs>
       <path d="M 49.296875 5.796875 
Q 50.5 5.796875 51.34375 4.9375 
Q 52.203125 4.09375 52.203125 2.90625 
Q 52.203125 1.59375 51.34375 0.796875 
Q 50.5 0 49.296875 0 
L 11.796875 0 
Q 10.40625 0 9.5 0.796875 
Q 8.59375 1.59375 8.59375 3 
Q 8.59375 4.09375 9.40625 5.09375 
L 32.5 30.59375 
Q 38.09375 36.59375 40.796875 41.34375 
Q 43.5 46.09375 43.5 50.703125 
Q 43.5 57.5 39.390625 61.390625 
Q 35.296875 65.296875 28 65.296875 
Q 23.09375 65.296875 19.25 62.9375 
Q 15.40625 60.59375 13.5 55.796875 
Q 12.40625 54 10.90625 54 
Q 9.796875 54 8.796875 54.796875 
Q 7.796875 55.59375 7.796875 56.59375 
Q 7.796875 57.203125 8.1875 58 
Q 8.59375 58.796875 9.203125 59.59375 
Q 11.796875 65 17 68 
Q 22.203125 71 28.40625 71 
Q 38.5 71 44.203125 65.5 
Q 49.90625 60 49.90625 51.09375 
Q 49.90625 45.59375 46.90625 39.84375 
Q 43.90625 34.09375 37 26.5 
L 18.59375 5.796875 
L 49.296875 5.796875 
z
" id="Quicksand-Regular-32"/>
      </defs>
      <g transform="translate(339.88175 318.56)scale(0.16 -0.16)">
       <use xlink:href="#Quicksand-Regular-32"/>
       <use x="56.699997" xlink:href="#Quicksand-Regular-30"/>
       <use x="116.199982" xlink:href="#Quicksand-Regular-30"/>
      </g>
     </g>
    </g>
    <g id="xtick_5">
     <g id="line2d_5">
      <g>
       <use style="stroke:#000000;stroke-width:0.8;" x="440.126" xlink:href="#mfe6260a4e6" y="299.72"/>
      </g>
     </g>
     <g id="text_5">
      <!-- 220 -->
      <g transform="translate(426.2935 318.56)scale(0.16 -0.16)">
       <use xlink:href="#Quicksand-Regular-32"/>
       <use x="56.699997" xlink:href="#Quicksand-Regular-32"/>
       <use x="113.399994" xlink:href="#Quicksand-Regular-30"/>
      </g>
     </g>
    </g>
    <g id="text_6">
     <!-- Height [cm] -->
     <defs>
      <path d="M 59.5 70 
Q 60.90625 70 61.75 69.140625 
Q 62.59375 68.296875 62.59375 66.90625 
L 62.59375 3.09375 
Q 62.5 1.703125 61.59375 0.84375 
Q 60.703125 0 59.40625 0 
Q 58.09375 0 57.1875 0.890625 
Q 56.296875 1.796875 56.296875 3.09375 
L 56.296875 32.90625 
L 15.703125 32.90625 
L 15.703125 3.09375 
Q 15.59375 1.796875 14.6875 0.890625 
Q 13.796875 0 12.5 0 
Q 11.09375 0 10.25 0.84375 
Q 9.40625 1.703125 9.40625 3.09375 
L 9.40625 66.90625 
Q 9.40625 68.296875 10.296875 69.140625 
Q 11.203125 70 12.59375 70 
Q 13.90625 70 14.796875 69.09375 
Q 15.703125 68.203125 15.703125 66.90625 
L 15.703125 38.703125 
L 56.296875 38.703125 
L 56.296875 66.90625 
Q 56.296875 68.203125 57.25 69.09375 
Q 58.203125 70 59.5 70 
z
" id="Quicksand-Regular-48"/>
      <path d="M 51.09375 28.5 
Q 51.09375 27.296875 50.1875 26.4375 
Q 49.296875 25.59375 48.09375 25.59375 
L 10.296875 25.59375 
Q 10.296875 19.59375 12.75 14.84375 
Q 15.203125 10.09375 19.75 7.34375 
Q 24.296875 4.59375 30.5 4.59375 
Q 35.296875 4.59375 39.09375 6.59375 
Q 42.90625 8.59375 45.203125 11.703125 
Q 46.296875 12.59375 47.296875 12.59375 
Q 48.296875 12.59375 49.09375 11.796875 
Q 49.90625 11 49.90625 10 
Q 49.90625 8.90625 48.90625 7.90625 
Q 45.703125 4 40.84375 1.5 
Q 36 -1 30.59375 -1 
Q 22.90625 -1 17 2.296875 
Q 11.09375 5.59375 7.796875 11.546875 
Q 4.5 17.5 4.5 25.296875 
Q 4.5 33.5 7.75 39.640625 
Q 11 45.796875 16.390625 49.046875 
Q 21.796875 52.296875 27.90625 52.296875 
Q 33.90625 52.296875 39.15625 49.5 
Q 44.40625 46.703125 47.703125 41.296875 
Q 51 35.90625 51.09375 28.5 
z
M 27.90625 46.5 
Q 22.09375 46.5 17.140625 42.5 
Q 12.203125 38.5 10.796875 31 
L 44.90625 31 
L 44.90625 31.796875 
Q 44.40625 36.296875 41.90625 39.640625 
Q 39.40625 43 35.65625 44.75 
Q 31.90625 46.5 27.90625 46.5 
z
" id="Quicksand-Regular-65"/>
      <path d="M 13.703125 3 
Q 13.703125 1.703125 12.84375 0.84375 
Q 12 0 10.703125 0 
Q 9.40625 0 8.546875 0.84375 
Q 7.703125 1.703125 7.703125 3 
L 7.703125 49 
Q 7.703125 50.296875 8.546875 51.140625 
Q 9.40625 52 10.703125 52 
Q 12 52 12.84375 51.140625 
Q 13.703125 50.296875 13.703125 49 
L 13.703125 3 
z
M 10.703125 58.703125 
Q 8.703125 58.703125 7.59375 59.65625 
Q 6.5 60.609375 6.5 62.40625 
L 6.5 63.40625 
Q 6.5 65.203125 7.640625 66.15625 
Q 8.796875 67.109375 10.796875 67.109375 
Q 14.796875 67.109375 14.796875 63.40625 
L 14.796875 62.40625 
Q 14.796875 60.609375 13.75 59.65625 
Q 12.703125 58.703125 10.703125 58.703125 
z
" id="Quicksand-Regular-69"/>
      <path d="M 51.09375 51.09375 
Q 52.40625 51.09375 53.25 50.25 
Q 54.09375 49.40625 54.09375 48 
L 54.09375 4.703125 
Q 54.09375 -3.09375 50.84375 -8.640625 
Q 47.59375 -14.203125 41.9375 -17.09375 
Q 36.296875 -20 29 -20 
Q 25.5 -20 21.640625 -19.09375 
Q 17.796875 -18.203125 15.046875 -16.796875 
Q 12.296875 -15.40625 11.90625 -13.90625 
Q 11.203125 -13.203125 11.203125 -12.296875 
Q 11.203125 -11.296875 12.09375 -10.703125 
Q 12.5 -10.40625 13.09375 -10.40625 
Q 13.703125 -10.40625 15.40625 -11.09375 
L 17.5 -12 
Q 23.703125 -14.40625 29.09375 -14.40625 
Q 38 -14.40625 43.046875 -9.34375 
Q 48.09375 -4.296875 48.09375 4.296875 
L 48.09375 10.5 
Q 45.59375 5.09375 40.1875 2.046875 
Q 34.796875 -1 28.90625 -1 
Q 22 -1 16.453125 2.453125 
Q 10.90625 5.90625 7.703125 12 
Q 4.5 18.09375 4.5 25.703125 
Q 4.5 33.203125 7.703125 39.296875 
Q 10.90625 45.40625 16.453125 48.84375 
Q 22 52.296875 28.796875 52.296875 
Q 35.09375 52.296875 40.34375 49.140625 
Q 45.59375 46 48.09375 41.59375 
L 48.09375 48 
Q 48.09375 49.296875 48.9375 50.1875 
Q 49.796875 51.09375 51.09375 51.09375 
z
M 29.40625 4.59375 
Q 34.90625 4.59375 39.25 7.25 
Q 43.59375 9.90625 46.046875 14.75 
Q 48.5 19.59375 48.5 25.703125 
Q 48.5 31.796875 46.046875 36.59375 
Q 43.59375 41.40625 39.25 44.046875 
Q 34.90625 46.703125 29.40625 46.703125 
Q 24 46.703125 19.640625 43.953125 
Q 15.296875 41.203125 12.84375 36.390625 
Q 10.40625 31.59375 10.40625 25.703125 
Q 10.40625 19.703125 12.84375 14.890625 
Q 15.296875 10.09375 19.640625 7.34375 
Q 24 4.59375 29.40625 4.59375 
z
" id="Quicksand-Regular-67"/>
      <path d="M 31.203125 51.5 
Q 40.203125 51.5 44.59375 45.84375 
Q 49 40.203125 49 31.296875 
L 49 3 
Q 49 1.703125 48.140625 0.84375 
Q 47.296875 0 46 0 
Q 44.703125 0 43.84375 0.84375 
Q 43 1.703125 43 3 
L 43 31.296875 
Q 43 37.796875 39.890625 41.84375 
Q 36.796875 45.90625 30.203125 45.90625 
Q 26 45.90625 22.25 43.90625 
Q 18.5 41.90625 16.203125 38.546875 
Q 13.90625 35.203125 13.90625 31.296875 
L 13.90625 3 
Q 13.90625 1.703125 13.046875 0.84375 
Q 12.203125 0 10.90625 0 
Q 9.59375 0 8.75 0.84375 
Q 7.90625 1.703125 7.90625 3 
L 7.90625 71 
Q 7.90625 72.296875 8.75 73.140625 
Q 9.59375 74 10.90625 74 
Q 12.203125 74 13.046875 73.140625 
Q 13.90625 72.296875 13.90625 71 
L 13.90625 41.703125 
Q 16.59375 46 21.390625 48.75 
Q 26.203125 51.5 31.203125 51.5 
z
" id="Quicksand-Regular-68"/>
      <path d="M 17.90625 45.296875 
L 17.90625 11.796875 
Q 17.90625 8 19.296875 6.640625 
Q 20.703125 5.296875 23 5.296875 
Q 23.59375 5.296875 24.5 5.546875 
Q 25.40625 5.796875 25.90625 5.796875 
Q 26.796875 5.796875 27.4375 5.046875 
Q 28.09375 4.296875 28.09375 3.296875 
Q 28.09375 1.90625 26.5 0.953125 
Q 24.90625 0 22.703125 0 
Q 20 0 17.890625 0.5 
Q 15.796875 1 13.84375 3.5 
Q 11.90625 6 11.90625 11.5 
L 11.90625 45.296875 
L 4.59375 45.296875 
Q 3.40625 45.296875 2.546875 46.09375 
Q 1.703125 46.90625 1.703125 48.09375 
Q 1.703125 49.296875 2.546875 50.09375 
Q 3.40625 50.90625 4.59375 50.90625 
L 11.90625 50.90625 
L 11.90625 62 
Q 11.90625 63.296875 12.75 64.140625 
Q 13.59375 65 14.90625 65 
Q 16.203125 65 17.046875 64.140625 
Q 17.90625 63.296875 17.90625 62 
L 17.90625 50.90625 
L 27.90625 50.90625 
Q 29 50.90625 29.84375 50 
Q 30.703125 49.09375 30.703125 48 
Q 30.703125 46.796875 29.890625 46.046875 
Q 29.09375 45.296875 27.90625 45.296875 
z
" id="Quicksand-Regular-74"/>
      <path id="Quicksand-Regular-20"/>
      <path d="M 33.5 -13.59375 
Q 34.59375 -13.59375 35.390625 -14.4375 
Q 36.203125 -15.296875 36.203125 -16.40625 
Q 36.203125 -17.5 35.390625 -18.25 
Q 34.59375 -19 33.5 -19 
L 10.703125 -19 
Q 9.59375 -19 8.796875 -18.203125 
Q 8 -17.40625 8 -16.296875 
L 8 67.296875 
Q 8 68.40625 8.796875 69.203125 
Q 9.59375 70 10.703125 70 
L 33.5 70 
Q 34.59375 70 35.390625 69.25 
Q 36.203125 68.5 36.203125 67.40625 
Q 36.203125 66.296875 35.390625 65.546875 
Q 34.59375 64.796875 33.5 64.796875 
L 13.90625 64.796875 
L 13.90625 -13.59375 
L 33.5 -13.59375 
z
" id="Quicksand-Regular-5b"/>
      <path d="M 30 52.296875 
Q 34.703125 52.296875 38.75 51.25 
Q 42.796875 50.203125 45.25 48.390625 
Q 47.703125 46.59375 47.703125 44.5 
Q 47.703125 43.40625 46.953125 42.5 
Q 46.203125 41.59375 45.09375 41.59375 
Q 44.09375 41.59375 43.4375 42 
Q 42.796875 42.40625 42 43.203125 
Q 40.703125 44.5 39.5 45.09375 
Q 38 45.796875 35.546875 46.25 
Q 33.09375 46.703125 30.296875 46.703125 
Q 24.796875 46.703125 20.25 43.890625 
Q 15.703125 41.09375 13.09375 36.296875 
Q 10.5 31.5 10.5 25.703125 
Q 10.5 19.703125 13 14.890625 
Q 15.5 10.09375 19.953125 7.34375 
Q 24.40625 4.59375 30.09375 4.59375 
Q 33.703125 4.59375 35.84375 5.1875 
Q 38 5.796875 40.09375 6.90625 
Q 40.796875 7.296875 42.5 8.703125 
Q 43.296875 9.40625 43.890625 9.75 
Q 44.5 10.09375 45.203125 10.09375 
Q 46.40625 10.09375 47.09375 9.34375 
Q 47.796875 8.59375 47.796875 7.40625 
Q 47.796875 5.703125 45.390625 3.75 
Q 43 1.796875 38.796875 0.390625 
Q 34.59375 -1 29.5 -1 
Q 22.203125 -1 16.5 2.453125 
Q 10.796875 5.90625 7.640625 12 
Q 4.5 18.09375 4.5 25.703125 
Q 4.5 33 7.703125 39.046875 
Q 10.90625 45.09375 16.703125 48.6875 
Q 22.5 52.296875 30 52.296875 
z
" id="Quicksand-Regular-63"/>
      <path d="M 65.90625 51.5 
Q 74.90625 51.5 79.15625 45.953125 
Q 83.40625 40.40625 83.40625 31.296875 
L 83.40625 3 
Q 83.40625 1.703125 82.546875 0.84375 
Q 81.703125 0 80.40625 0 
Q 79.09375 0 78.25 0.84375 
Q 77.40625 1.703125 77.40625 3 
L 77.40625 31 
Q 77.40625 37.59375 74.25 41.75 
Q 71.09375 45.90625 64.5 45.90625 
Q 60.296875 45.90625 56.546875 43.90625 
Q 52.796875 41.90625 50.5 38.453125 
Q 48.203125 35 48.203125 31 
L 48.203125 3 
Q 48.203125 1.703125 47.34375 0.84375 
Q 46.5 0 45.203125 0 
Q 43.90625 0 43.046875 0.84375 
Q 42.203125 1.703125 42.203125 3 
L 42.203125 31.296875 
Q 42.203125 37.796875 39.203125 41.84375 
Q 36.203125 45.90625 29.796875 45.90625 
Q 25.703125 45.90625 22.046875 43.90625 
Q 18.40625 41.90625 16.15625 38.546875 
Q 13.90625 35.203125 13.90625 31.296875 
L 13.90625 3 
Q 13.90625 1.703125 13.046875 0.84375 
Q 12.203125 0 10.90625 0 
Q 9.59375 0 8.75 0.84375 
Q 7.90625 1.703125 7.90625 3 
L 7.90625 47.796875 
Q 7.90625 49.09375 8.75 49.9375 
Q 9.59375 50.796875 10.90625 50.796875 
Q 12.203125 50.796875 13.046875 49.9375 
Q 13.90625 49.09375 13.90625 47.796875 
L 13.90625 42 
Q 16.59375 46.09375 21.1875 48.796875 
Q 25.796875 51.5 30.90625 51.5 
Q 36.703125 51.5 40.890625 48.703125 
Q 45.09375 45.90625 46.90625 40.5 
Q 49 44.90625 54.59375 48.203125 
Q 60.203125 51.5 65.90625 51.5 
z
" id="Quicksand-Regular-6d"/>
      <path d="M 29 70 
Q 30.09375 70 30.890625 69.203125 
Q 31.703125 68.40625 31.703125 67.296875 
L 31.703125 -16.296875 
Q 31.703125 -17.40625 30.890625 -18.203125 
Q 30.09375 -19 29 -19 
L 6.203125 -19 
Q 5.09375 -19 4.296875 -18.25 
Q 3.5 -17.5 3.5 -16.40625 
Q 3.5 -15.296875 4.296875 -14.546875 
Q 5.09375 -13.796875 6.203125 -13.796875 
L 25.796875 -13.796875 
L 25.796875 64.59375 
L 6.203125 64.59375 
Q 5.09375 64.59375 4.296875 65.4375 
Q 3.5 66.296875 3.5 67.40625 
Q 3.5 68.5 4.296875 69.25 
Q 5.09375 70 6.203125 70 
L 29 70 
z
" id="Quicksand-Regular-5d"/>
     </defs>
     <g transform="translate(223.66875 337.6)scale(0.16 -0.16)">
      <use xlink:href="#Quicksand-Regular-48"/>
      <use x="71.999985" xlink:href="#Quicksand-Regular-65"/>
      <use x="127.599976" xlink:href="#Quicksand-Regular-69"/>
      <use x="148.999969" xlink:href="#Quicksand-Regular-67"/>
      <use x="210.999954" xlink:href="#Quicksand-Regular-68"/>
      <use x="267.799942" xlink:href="#Quicksand-Regular-74"/>
      <use x="301.699936" xlink:href="#Quicksand-Regular-20"/>
      <use x="328.999924" xlink:href="#Quicksand-Regular-5b"/>
      <use x="368.699921" xlink:href="#Quicksand-Regular-63"/>
      <use x="420.099915" xlink:href="#Quicksand-Regular-6d"/>
      <use x="511.299896" xlink:href="#Quicksand-Regular-5d"/>
     </g>
    </g>
   </g>
   <g id="matplotlib.axis_2">
    <g id="ytick_1">
     <g id="line2d_6">
      <defs>
       <path d="M 0 0 
L -3.5 0 
" id="m5ef76f9cc3" style="stroke:#000000;stroke-width:0.8;"/>
      </defs>
      <g>
       <use style="stroke:#000000;stroke-width:0.8;" x="52.28" xlink:href="#m5ef76f9cc3" y="299.72"/>
      </g>
     </g>
     <g id="text_7">
      <!-- 0 -->
      <g transform="translate(35.76 305.64)scale(0.16 -0.16)">
       <use xlink:href="#Quicksand-Regular-30"/>
      </g>
     </g>
    </g>
    <g id="ytick_2">
     <g id="line2d_7">
      <g>
       <use style="stroke:#000000;stroke-width:0.8;" x="52.28" xlink:href="#m5ef76f9cc3" y="260.863026"/>
      </g>
     </g>
     <g id="text_8">
      <!-- 50 -->
      <defs>
       <path d="M 25.296875 46.5 
Q 31.703125 46.5 36.84375 43.640625 
Q 42 40.796875 44.953125 35.640625 
Q 47.90625 30.5 47.90625 24.09375 
Q 47.90625 17.09375 44.65625 11.546875 
Q 41.40625 6 35.59375 2.890625 
Q 29.796875 -0.203125 22.40625 -0.203125 
Q 18.203125 -0.203125 14.046875 1.1875 
Q 9.90625 2.59375 6.796875 5.203125 
Q 6.203125 5.59375 5.84375 6.34375 
Q 5.5 7.09375 5.5 7.796875 
Q 5.5 8.796875 6.34375 9.75 
Q 7.203125 10.703125 8.40625 10.703125 
Q 9.5 10.703125 10.59375 9.796875 
Q 13.203125 7.796875 16.25 6.6875 
Q 19.296875 5.59375 22.40625 5.59375 
Q 28.09375 5.59375 32.546875 7.890625 
Q 37 10.203125 39.453125 14.390625 
Q 41.90625 18.59375 41.90625 23.90625 
Q 41.90625 31.5 37 36.140625 
Q 32.09375 40.796875 23.90625 40.796875 
Q 20.796875 40.796875 18.140625 39.890625 
Q 15.5 39 12.203125 37.5 
Q 9.796875 36.296875 9.09375 36.296875 
Q 7.59375 36.296875 6.640625 37.25 
Q 5.703125 38.203125 5.703125 39.5 
Q 5.703125 40 5.796875 40.296875 
L 10.09375 67.5 
Q 10.296875 68.5 11.140625 69.25 
Q 12 70 13.203125 70 
L 43.296875 70 
Q 44.5 70 45.34375 69.140625 
Q 46.203125 68.296875 46.203125 67 
Q 46.203125 65.796875 45.34375 64.9375 
Q 44.5 64.09375 43.296875 64.09375 
L 15.296875 64.09375 
L 11.90625 43.40625 
Q 14.5 44.703125 18.046875 45.59375 
Q 21.59375 46.5 25.296875 46.5 
z
" id="Quicksand-Regular-35"/>
      </defs>
      <g transform="translate(26.975 266.783026)scale(0.16 -0.16)">
       <use xlink:href="#Quicksand-Regular-35"/>
       <use x="54.899994" xlink:href="#Quicksand-Regular-30"/>
      </g>
     </g>
    </g>
    <g id="ytick_3">
     <g id="line2d_8">
      <g>
       <use style="stroke:#000000;stroke-width:0.8;" x="52.28" xlink:href="#m5ef76f9cc3" y="222.006053"/>
      </g>
     </g>
     <g id="text_9">
      <!-- 100 -->
      <g transform="translate(20.9125 227.926053)scale(0.16 -0.16)">
       <use xlink:href="#Quicksand-Regular-31"/>
       <use x="33.299988" xlink:href="#Quicksand-Regular-30"/>
       <use x="92.799973" xlink:href="#Quicksand-Regular-30"/>
      </g>
     </g>
    </g>
    <g id="ytick_4">
     <g id="line2d_9">
      <g>
       <use style="stroke:#000000;stroke-width:0.8;" x="52.28" xlink:href="#m5ef76f9cc3" y="183.149079"/>
      </g>
     </g>
     <g id="text_10">
      <!-- 150 -->
      <g transform="translate(21.6475 189.069079)scale(0.16 -0.16)">
       <use xlink:href="#Quicksand-Regular-31"/>
       <use x="33.299988" xlink:href="#Quicksand-Regular-35"/>
       <use x="88.199982" xlink:href="#Quicksand-Regular-30"/>
      </g>
     </g>
    </g>
    <g id="ytick_5">
     <g id="line2d_10">
      <g>
       <use style="stroke:#000000;stroke-width:0.8;" x="52.28" xlink:href="#m5ef76f9cc3" y="144.292105"/>
      </g>
     </g>
     <g id="text_11">
      <!-- 200 -->
      <g transform="translate(17.1675 150.212105)scale(0.16 -0.16)">
       <use xlink:href="#Quicksand-Regular-32"/>
       <use x="56.699997" xlink:href="#Quicksand-Regular-30"/>
       <use x="116.199982" xlink:href="#Quicksand-Regular-30"/>
      </g>
     </g>
    </g>
    <g id="ytick_6">
     <g id="line2d_11">
      <g>
       <use style="stroke:#000000;stroke-width:0.8;" x="52.28" xlink:href="#m5ef76f9cc3" y="105.435132"/>
      </g>
     </g>
     <g id="text_12">
      <!-- 250 -->
      <g transform="translate(17.9025 111.355132)scale(0.16 -0.16)">
       <use xlink:href="#Quicksand-Regular-32"/>
       <use x="56.699997" xlink:href="#Quicksand-Regular-35"/>
       <use x="111.599991" xlink:href="#Quicksand-Regular-30"/>
      </g>
     </g>
    </g>
    <g id="ytick_7">
     <g id="line2d_12">
      <g>
       <use style="stroke:#000000;stroke-width:0.8;" x="52.28" xlink:href="#m5ef76f9cc3" y="66.578158"/>
      </g>
     </g>
     <g id="text_13">
      <!-- 300 -->
      <defs>
       <path d="M 25.40625 44.296875 
Q 31 44.296875 35.84375 41.6875 
Q 40.703125 39.09375 43.640625 34.09375 
Q 46.59375 29.09375 46.59375 22.296875 
Q 46.59375 15.5 43.34375 10.203125 
Q 40.09375 4.90625 34.5 1.953125 
Q 28.90625 -1 22.09375 -1 
Q 17.796875 -1 13.796875 0.390625 
Q 9.796875 1.796875 7 4.59375 
Q 5.59375 5.59375 5.59375 7 
Q 5.59375 8.203125 6.5 9.25 
Q 7.40625 10.296875 8.59375 10.296875 
Q 9.796875 10.296875 11.09375 9.203125 
Q 15.296875 4.703125 22.703125 4.703125 
Q 27.5 4.703125 31.59375 6.890625 
Q 35.703125 9.09375 38.09375 13.09375 
Q 40.5 17.09375 40.5 22.09375 
Q 40.5 27.59375 38.046875 31.296875 
Q 35.59375 35 31.640625 36.75 
Q 27.703125 38.5 23.296875 38.5 
Q 22.09375 38.5 20.1875 38.140625 
Q 18.296875 37.796875 17.796875 37.796875 
Q 16.59375 37.796875 15.84375 38.640625 
Q 15.09375 39.5 15.09375 40.796875 
Q 15.09375 42.09375 16.09375 43.09375 
L 35.203125 64.296875 
L 7.40625 64.296875 
Q 6.203125 64.296875 5.34375 65.09375 
Q 4.5 65.90625 4.5 67.203125 
Q 4.5 68.40625 5.34375 69.203125 
Q 6.203125 70 7.40625 70 
L 41 70 
Q 42.59375 70 43.34375 69.046875 
Q 44.09375 68.09375 44.09375 66.90625 
Q 44.09375 65.703125 43.09375 64.703125 
L 24.796875 44.296875 
L 25.40625 44.296875 
z
" id="Quicksand-Regular-33"/>
      </defs>
      <g transform="translate(17.92 72.498158)scale(0.16 -0.16)">
       <use xlink:href="#Quicksand-Regular-33"/>
       <use x="51.999985" xlink:href="#Quicksand-Regular-30"/>
       <use x="111.499969" xlink:href="#Quicksand-Regular-30"/>
      </g>
     </g>
    </g>
   </g>
   <g id="patch_13">
    <path d="M 52.28 299.72 
L 52.28 37.28 
" style="fill:none;stroke:#000000;stroke-linecap:square;stroke-linejoin:miter;stroke-width:0.8;"/>
   </g>
   <g id="patch_14">
    <path d="M 483.22 299.72 
L 483.22 37.28 
" style="fill:none;stroke:#000000;stroke-linecap:square;stroke-linejoin:miter;stroke-width:0.8;"/>
   </g>
   <g id="patch_15">
    <path d="M 52.28 299.72 
L 483.22 299.72 
" style="fill:none;stroke:#000000;stroke-linecap:square;stroke-linejoin:miter;stroke-width:0.8;"/>
   </g>
   <g id="patch_16">
    <path d="M 52.28 37.28 
L 483.22 37.28 
" style="fill:none;stroke:#000000;stroke-linecap:square;stroke-linejoin:miter;stroke-width:0.8;"/>
   </g>
   <g id="text_14">
    <g clip-path="url(#p50c7778f39)">
     <!-- 4 -->
     <g transform="translate(69.3795 293.411442)scale(0.16 -0.16)">
      <use xlink:href="#Quicksand-Regular-34"/>
     </g>
    </g>
   </g>
   <g id="text_15">
    <g clip-path="url(#p50c7778f39)">
     <!-- 22 -->
     <g transform="translate(107.8485 279.422932)scale(0.16 -0.16)">
      <use xlink:href="#Quicksand-Regular-32"/>
      <use x="56.699997" xlink:href="#Quicksand-Regular-32"/>
     </g>
    </g>
   </g>
   <g id="text_16">
    <g clip-path="url(#p50c7778f39)">
     <!-- 114 -->
     <g transform="translate(150.24 207.9261)scale(0.16 -0.16)">
      <use xlink:href="#Quicksand-Regular-31"/>
      <use x="33.299988" xlink:href="#Quicksand-Regular-31"/>
      <use x="66.599976" xlink:href="#Quicksand-Regular-34"/>
     </g>
    </g>
   </g>
   <g id="text_17">
    <g clip-path="url(#p50c7778f39)">
     <!-- 274 -->
     <defs>
      <path d="M 45.703125 70 
Q 47.09375 70 47.84375 69.203125 
Q 48.59375 68.40625 48.59375 67.203125 
Q 48.59375 66.703125 48.296875 65.796875 
L 20.796875 1.703125 
Q 20.40625 0.796875 19.59375 0.25 
Q 18.796875 -0.296875 17.90625 -0.296875 
Q 16.703125 -0.296875 15.75 0.5 
Q 14.796875 1.296875 14.796875 2.5 
Q 14.796875 3.296875 15.09375 4 
L 41 64.296875 
L 8.90625 64.296875 
Q 7.703125 64.296875 6.84375 65.09375 
Q 6 65.90625 6 67.203125 
Q 6 68.40625 6.84375 69.203125 
Q 7.703125 70 8.90625 70 
L 45.703125 70 
z
" id="Quicksand-Regular-37"/>
     </defs>
     <g transform="translate(189.9815 83.583784)scale(0.16 -0.16)">
      <use xlink:href="#Quicksand-Regular-32"/>
      <use x="56.699997" xlink:href="#Quicksand-Regular-37"/>
      <use x="108.499985" xlink:href="#Quicksand-Regular-34"/>
     </g>
    </g>
   </g>
   <g id="text_18">
    <g clip-path="url(#p50c7778f39)">
     <!-- 307 -->
     <g transform="translate(233.13925 57.938182)scale(0.16 -0.16)">
      <use xlink:href="#Quicksand-Regular-33"/>
      <use x="51.999985" xlink:href="#Quicksand-Regular-30"/>
      <use x="111.499969" xlink:href="#Quicksand-Regular-37"/>
     </g>
    </g>
   </g>
   <g id="text_19">
    <g clip-path="url(#p50c7778f39)">
     <!-- 188 -->
     <g transform="translate(277.59325 150.417779)scale(0.16 -0.16)">
      <use xlink:href="#Quicksand-Regular-31"/>
      <use x="33.299988" xlink:href="#Quicksand-Regular-38"/>
      <use x="89.799973" xlink:href="#Quicksand-Regular-38"/>
     </g>
    </g>
   </g>
   <g id="text_20">
    <g clip-path="url(#p50c7778f39)">
     <!-- 76 -->
     <g transform="translate(323.951 237.4574)scale(0.16 -0.16)">
      <use xlink:href="#Quicksand-Regular-37"/>
      <use x="51.799988" xlink:href="#Quicksand-Regular-36"/>
     </g>
    </g>
   </g>
   <g id="text_21">
    <g clip-path="url(#p50c7778f39)">
     <!-- 13 -->
     <g transform="translate(368.66125 286.417187)scale(0.16 -0.16)">
      <use xlink:href="#Quicksand-Regular-31"/>
      <use x="33.299988" xlink:href="#Quicksand-Regular-33"/>
     </g>
    </g>
   </g>
   <g id="text_22">
    <g clip-path="url(#p50c7778f39)">
     <!-- 1 -->
     <g transform="translate(415.91525 295.742861)scale(0.16 -0.16)">
      <use xlink:href="#Quicksand-Regular-31"/>
     </g>
    </g>
   </g>
   <g id="text_23">
    <g clip-path="url(#p50c7778f39)">
     <!-- 1 -->
     <g transform="translate(459.00925 295.742861)scale(0.16 -0.16)">
      <use xlink:href="#Quicksand-Regular-31"/>
     </g>
    </g>
   </g>
   <g id="text_24">
    <!-- Total: 1000 -->
    <defs>
     <path d="M 54 70 
Q 55.296875 70 56.140625 69.203125 
Q 57 68.40625 57 67.09375 
Q 57 65.796875 56.140625 65.046875 
Q 55.296875 64.296875 54 64.296875 
L 33.296875 64.296875 
L 33.296875 3 
Q 33.296875 1.703125 32.390625 0.84375 
Q 31.5 0 30.203125 0 
Q 28.796875 0 27.9375 0.84375 
Q 27.09375 1.703125 27.09375 3 
L 27.09375 64.296875 
L 6.40625 64.296875 
Q 5.09375 64.296875 4.25 65.09375 
Q 3.40625 65.90625 3.40625 67.203125 
Q 3.40625 68.40625 4.25 69.203125 
Q 5.09375 70 6.40625 70 
L 54 70 
z
" id="Quicksand-Regular-54"/>
     <path d="M 55.09375 25.59375 
Q 55.09375 18.09375 51.796875 12 
Q 48.5 5.90625 42.703125 2.453125 
Q 36.90625 -1 29.796875 -1 
Q 22.703125 -1 16.890625 2.453125 
Q 11.09375 5.90625 7.796875 12 
Q 4.5 18.09375 4.5 25.59375 
Q 4.5 33.09375 7.796875 39.1875 
Q 11.09375 45.296875 16.890625 48.796875 
Q 22.703125 52.296875 29.796875 52.296875 
Q 36.90625 52.296875 42.703125 48.796875 
Q 48.5 45.296875 51.796875 39.1875 
Q 55.09375 33.09375 55.09375 25.59375 
z
M 49.09375 25.59375 
Q 49.09375 31.59375 46.59375 36.390625 
Q 44.09375 41.203125 39.640625 43.953125 
Q 35.203125 46.703125 29.796875 46.703125 
Q 24.40625 46.703125 20 43.953125 
Q 15.59375 41.203125 13.046875 36.390625 
Q 10.5 31.59375 10.5 25.59375 
Q 10.5 19.703125 13.046875 14.890625 
Q 15.59375 10.09375 20 7.34375 
Q 24.40625 4.59375 29.796875 4.59375 
Q 35.203125 4.59375 39.640625 7.296875 
Q 44.09375 10 46.59375 14.796875 
Q 49.09375 19.59375 49.09375 25.59375 
z
" id="Quicksand-Regular-6f"/>
     <path d="M 49.40625 51.09375 
Q 50.703125 51.09375 51.546875 50.1875 
Q 52.40625 49.296875 52.40625 48 
L 52.40625 3 
Q 52.40625 1.703125 51.546875 0.84375 
Q 50.703125 0 49.40625 0 
Q 48.09375 0 47.25 0.84375 
Q 46.40625 1.703125 46.40625 3 
L 46.40625 9.703125 
Q 43.90625 5.203125 38.90625 2.09375 
Q 33.90625 -1 28 -1 
Q 21.296875 -1 15.9375 2.5 
Q 10.59375 6 7.546875 12.09375 
Q 4.5 18.203125 4.5 25.796875 
Q 4.5 33.40625 7.59375 39.453125 
Q 10.703125 45.5 16.046875 48.890625 
Q 21.40625 52.296875 27.90625 52.296875 
Q 33.90625 52.296875 38.90625 49.390625 
Q 43.90625 46.5 46.40625 41.796875 
L 46.40625 48 
Q 46.40625 49.296875 47.25 50.1875 
Q 48.09375 51.09375 49.40625 51.09375 
z
M 28.59375 4.59375 
Q 33.796875 4.59375 37.9375 7.34375 
Q 42.09375 10.09375 44.4375 14.9375 
Q 46.796875 19.796875 46.796875 25.796875 
Q 46.796875 31.59375 44.4375 36.390625 
Q 42.09375 41.203125 37.9375 43.953125 
Q 33.796875 46.703125 28.59375 46.703125 
Q 23.40625 46.703125 19.25 44 
Q 15.09375 41.296875 12.75 36.546875 
Q 10.40625 31.796875 10.40625 25.796875 
Q 10.40625 19.796875 12.703125 14.9375 
Q 15 10.09375 19.140625 7.34375 
Q 23.296875 4.59375 28.59375 4.59375 
z
" id="Quicksand-Regular-61"/>
     <path d="M 14.5 3 
Q 14.5 1.703125 13.640625 0.84375 
Q 12.796875 0 11.5 0 
Q 10.203125 0 9.34375 0.84375 
Q 8.5 1.703125 8.5 3 
L 8.5 71 
Q 8.5 72.296875 9.34375 73.140625 
Q 10.203125 74 11.5 74 
Q 12.796875 74 13.640625 73.140625 
Q 14.5 72.296875 14.5 71 
L 14.5 3 
z
" id="Quicksand-Regular-6c"/>
     <path d="M 9 41.703125 
Q 7.296875 41.703125 6.390625 42.703125 
Q 5.5 43.703125 5.5 45.5 
L 5.5 47.59375 
Q 5.5 49.40625 6.390625 50.453125 
Q 7.296875 51.5 9 51.5 
L 9.703125 51.5 
Q 11.40625 51.5 12.296875 50.453125 
Q 13.203125 49.40625 13.203125 47.59375 
L 13.203125 45.5 
Q 13.203125 43.703125 12.296875 42.703125 
Q 11.40625 41.703125 9.703125 41.703125 
L 9 41.703125 
z
M 9 0 
Q 7.296875 0 6.390625 1 
Q 5.5 2 5.5 3.796875 
L 5.5 6 
Q 5.5 7.796875 6.390625 8.796875 
Q 7.296875 9.796875 9 9.796875 
L 9.703125 9.796875 
Q 11.40625 9.796875 12.296875 8.796875 
Q 13.203125 7.796875 13.203125 6 
L 13.203125 3.796875 
Q 13.203125 2 12.296875 1 
Q 11.40625 0 9.703125 0 
L 9 0 
z
" id="Quicksand-Regular-3a"/>
    </defs>
    <g transform="translate(73.827 62.242)scale(0.16 -0.16)">
     <use xlink:href="#Quicksand-Regular-54"/>
     <use x="60.399994" xlink:href="#Quicksand-Regular-6f"/>
     <use x="119.899979" xlink:href="#Quicksand-Regular-74"/>
     <use x="153.799973" xlink:href="#Quicksand-Regular-61"/>
     <use x="213.999969" xlink:href="#Quicksand-Regular-6c"/>
     <use x="236.999954" xlink:href="#Quicksand-Regular-3a"/>
     <use x="255.699951" xlink:href="#Quicksand-Regular-20"/>
     <use x="282.999939" xlink:href="#Quicksand-Regular-31"/>
     <use x="316.299927" xlink:href="#Quicksand-Regular-30"/>
     <use x="375.799911" xlink:href="#Quicksand-Regular-30"/>
     <use x="435.299896" xlink:href="#Quicksand-Regular-30"/>
    </g>
   </g>
   <g id="text_25">
    <!-- How tall are people in Fakeland? -->
    <defs>
     <path d="M 68.59375 52.203125 
Q 69.90625 52.203125 70.75 51.390625 
Q 71.59375 50.59375 71.59375 49.203125 
Q 71.59375 49.09375 71.296875 47.90625 
L 55.90625 1.90625 
Q 55.40625 1 54.59375 0.453125 
Q 53.796875 -0.09375 52.90625 0 
Q 52 0 51.296875 0.5 
Q 50.59375 1 50.203125 1.90625 
L 37.09375 32.703125 
L 25.40625 1.90625 
Q 25 1.09375 24.25 0.546875 
Q 23.5 0 22.703125 0 
Q 21.703125 -0.09375 20.84375 0.453125 
Q 20 1 19.703125 1.90625 
L 3.90625 47.90625 
Q 3.59375 48.5 3.59375 49.203125 
Q 3.59375 50.5 4.5 51.34375 
Q 5.40625 52.203125 6.703125 52.203125 
Q 7.59375 52.203125 8.34375 51.640625 
Q 9.09375 51.09375 9.40625 50.203125 
L 22.703125 10.296875 
L 34.59375 40.203125 
Q 35.296875 42.09375 37.40625 42.09375 
Q 39.40625 42.09375 40.203125 40.203125 
L 52.703125 10.5 
L 65.796875 50.203125 
Q 66.40625 52.203125 68.59375 52.203125 
z
" id="Quicksand-Regular-77"/>
     <path d="M 31.796875 52.296875 
Q 33.796875 52.296875 35.390625 51.5 
Q 37 50.703125 37 49.09375 
Q 37 47.703125 36.203125 46.84375 
Q 35.40625 46 34.296875 46 
Q 33.796875 46 32.34375 46.5 
Q 30.90625 47 29.59375 47 
Q 25.90625 47 22.25 44.140625 
Q 18.59375 41.296875 16.25 36.796875 
Q 13.90625 32.296875 13.90625 27.703125 
L 13.90625 3 
Q 13.90625 1.703125 13.046875 0.84375 
Q 12.203125 0 10.90625 0 
Q 9.59375 0 8.75 0.84375 
Q 7.90625 1.703125 7.90625 3 
L 7.90625 47.796875 
Q 7.90625 49.09375 8.75 49.9375 
Q 9.59375 50.796875 10.90625 50.796875 
Q 12.203125 50.796875 13.046875 49.9375 
Q 13.90625 49.09375 13.90625 47.796875 
L 13.90625 39 
Q 16.203125 44.703125 20.84375 48.453125 
Q 25.5 52.203125 31.796875 52.296875 
z
" id="Quicksand-Regular-72"/>
     <path d="M 32.203125 51.5 
Q 38.796875 51.5 44.1875 48.140625 
Q 49.59375 44.796875 52.640625 38.84375 
Q 55.703125 32.90625 55.703125 25.5 
Q 55.703125 18 52.640625 12.046875 
Q 49.59375 6.09375 44.25 2.6875 
Q 38.90625 -0.703125 32.296875 -0.703125 
Q 26.5 -0.703125 21.640625 2.046875 
Q 16.796875 4.796875 13.90625 9.40625 
L 13.90625 -17 
Q 13.90625 -18.296875 13.046875 -19.140625 
Q 12.203125 -20 10.90625 -20 
Q 9.59375 -20 8.75 -19.140625 
Q 7.90625 -18.296875 7.90625 -17 
L 7.90625 48.203125 
Q 7.90625 49.5 8.75 50.390625 
Q 9.59375 51.296875 10.90625 51.296875 
Q 12.203125 51.296875 13.046875 50.390625 
Q 13.90625 49.5 13.90625 48.203125 
L 13.90625 41.40625 
Q 16.5 46.09375 21.390625 48.796875 
Q 26.296875 51.5 32.203125 51.5 
z
M 31.703125 4.90625 
Q 36.90625 4.90625 41.046875 7.546875 
Q 45.203125 10.203125 47.546875 14.890625 
Q 49.90625 19.59375 49.90625 25.5 
Q 49.90625 31.296875 47.546875 35.9375 
Q 45.203125 40.59375 41.046875 43.25 
Q 36.90625 45.90625 31.703125 45.90625 
Q 26.40625 45.90625 22.203125 43.296875 
Q 18 40.703125 15.703125 36.046875 
Q 13.40625 31.40625 13.40625 25.5 
Q 13.40625 19.59375 15.703125 14.890625 
Q 18 10.203125 22.203125 7.546875 
Q 26.40625 4.90625 31.703125 4.90625 
z
" id="Quicksand-Regular-70"/>
     <path d="M 32 52.296875 
Q 41.296875 52.296875 45.640625 46.84375 
Q 50 41.40625 50 32.40625 
L 50 3 
Q 50 1.703125 49.09375 0.84375 
Q 48.203125 0 47 0 
Q 45.703125 0 44.84375 0.84375 
Q 44 1.703125 44 3 
L 44 32.09375 
Q 44 38.59375 40.75 42.640625 
Q 37.5 46.703125 30.703125 46.703125 
Q 26.40625 46.703125 22.546875 44.703125 
Q 18.703125 42.703125 16.296875 39.34375 
Q 13.90625 36 13.90625 32.09375 
L 13.90625 3 
Q 13.90625 1.703125 13.046875 0.84375 
Q 12.203125 0 10.90625 0 
Q 9.59375 0 8.75 0.84375 
Q 7.90625 1.703125 7.90625 3 
L 7.90625 47.796875 
Q 7.90625 49.09375 8.75 49.9375 
Q 9.59375 50.796875 10.90625 50.796875 
Q 12.203125 50.796875 13.046875 49.9375 
Q 13.90625 49.09375 13.90625 47.796875 
L 13.90625 42.296875 
Q 16.59375 46.59375 21.640625 49.4375 
Q 26.703125 52.296875 32 52.296875 
z
" id="Quicksand-Regular-6e"/>
     <path d="M 48.796875 70 
Q 50.09375 70 50.9375 69.140625 
Q 51.796875 68.296875 51.796875 67 
Q 51.796875 65.796875 50.9375 64.9375 
Q 50.09375 64.09375 48.796875 64.09375 
L 15.5 64.09375 
L 15.5 39 
L 44.296875 39 
Q 45.59375 39 46.4375 38.203125 
Q 47.296875 37.40625 47.296875 36.09375 
Q 47.296875 34.796875 46.4375 34 
Q 45.59375 33.203125 44.296875 33.203125 
L 15.5 33.203125 
L 15.5 3 
Q 15.5 1.703125 14.640625 0.84375 
Q 13.796875 0 12.5 0 
Q 11.09375 0 10.25 0.84375 
Q 9.40625 1.703125 9.40625 3 
L 9.40625 67 
Q 9.40625 68.296875 10.25 69.140625 
Q 11.09375 70 12.40625 70 
L 48.796875 70 
z
" id="Quicksand-Regular-46"/>
     <path d="M 48.40625 5.296875 
Q 49.296875 4.296875 49.296875 3 
Q 49.296875 1.703125 48.25 0.84375 
Q 47.203125 0 46.296875 0 
Q 45 0 44.09375 1.09375 
L 22 24.5 
L 14.5 18.09375 
L 14.5 3 
Q 14.5 1.703125 13.640625 0.84375 
Q 12.796875 0 11.5 0 
Q 10.203125 0 9.34375 0.84375 
Q 8.5 1.703125 8.5 3 
L 8.5 71 
Q 8.5 72.296875 9.34375 73.140625 
Q 10.203125 74 11.5 74 
Q 12.796875 74 13.640625 73.140625 
Q 14.5 72.296875 14.5 71 
L 14.5 25.40625 
L 43.40625 50.296875 
Q 44.296875 51.296875 45.5 51.296875 
Q 46.59375 51.296875 47.5 50.34375 
Q 48.40625 49.40625 48.40625 48.296875 
Q 48.40625 47.09375 47.296875 46 
L 26.703125 28.5 
L 48.40625 5.296875 
z
" id="Quicksand-Regular-6b"/>
     <path d="M 49.40625 74 
Q 50.703125 74 51.546875 73.140625 
Q 52.40625 72.296875 52.40625 71 
L 52.40625 3 
Q 52.40625 1.703125 51.546875 0.84375 
Q 50.703125 0 49.40625 0 
Q 48.09375 0 47.25 0.84375 
Q 46.40625 1.703125 46.40625 3 
L 46.40625 10 
Q 43.90625 5.40625 38.953125 2.203125 
Q 34 -1 28 -1 
Q 21.40625 -1 16.046875 2.453125 
Q 10.703125 5.90625 7.59375 12 
Q 4.5 18.09375 4.5 25.703125 
Q 4.5 33.203125 7.59375 39.296875 
Q 10.703125 45.40625 16.046875 48.84375 
Q 21.40625 52.296875 27.90625 52.296875 
Q 33.796875 52.296875 38.796875 49.34375 
Q 43.796875 46.40625 46.40625 41.703125 
L 46.40625 71 
Q 46.40625 72.296875 47.25 73.140625 
Q 48.09375 74 49.40625 74 
z
M 28.59375 4.59375 
Q 33.796875 4.59375 37.9375 7.296875 
Q 42.09375 10 44.4375 14.84375 
Q 46.796875 19.703125 46.796875 25.703125 
Q 46.796875 31.59375 44.4375 36.390625 
Q 42.09375 41.203125 37.9375 43.953125 
Q 33.796875 46.703125 28.59375 46.703125 
Q 23.40625 46.703125 19.25 43.953125 
Q 15.09375 41.203125 12.75 36.390625 
Q 10.40625 31.59375 10.40625 25.703125 
Q 10.40625 19.703125 12.75 14.890625 
Q 15.09375 10.09375 19.25 7.34375 
Q 23.40625 4.59375 28.59375 4.59375 
z
" id="Quicksand-Regular-64"/>
     <path d="M 24.40625 73.59375 
Q 30.203125 73.59375 34.953125 71 
Q 39.703125 68.40625 42.5 63.546875 
Q 45.296875 58.703125 45.296875 52.296875 
Q 45.296875 47.203125 42.75 42.640625 
Q 40.203125 38.09375 35.75 35.09375 
Q 31.296875 32.09375 26 31.59375 
L 26 21.703125 
Q 26 20.40625 25.140625 19.546875 
Q 24.296875 18.703125 23 18.703125 
Q 21.703125 18.703125 20.84375 19.546875 
Q 20 20.40625 20.09375 21.703125 
L 20.09375 33.59375 
Q 20.09375 34.90625 20.9375 35.796875 
Q 21.796875 36.703125 23.09375 36.703125 
Q 30 37.09375 34.546875 41.390625 
Q 39.09375 45.703125 39.09375 52.296875 
Q 39.09375 56.796875 37.140625 60.34375 
Q 35.203125 63.90625 31.84375 65.84375 
Q 28.5 67.796875 24.40625 67.796875 
Q 20.40625 67.796875 16.796875 65.9375 
Q 13.203125 64.09375 10.703125 60.90625 
Q 9.5 59.703125 8.203125 59.703125 
Q 7.203125 59.703125 6.59375 60.203125 
Q 5.09375 61.09375 5.09375 62.59375 
Q 5.09375 63.59375 5.90625 64.59375 
Q 9.09375 68.703125 14 71.140625 
Q 18.90625 73.59375 24.40625 73.59375 
z
M 23.703125 9.796875 
Q 25.40625 9.796875 26.296875 8.796875 
Q 27.203125 7.796875 27.203125 6 
L 27.203125 3.796875 
Q 27.203125 2 26.296875 1 
Q 25.40625 0 23.703125 0 
L 23.09375 0 
Q 21.296875 0 20.390625 1 
Q 19.5 2 19.5 3.796875 
L 19.5 6 
Q 19.5 7.796875 20.390625 8.796875 
Q 21.296875 9.796875 23.09375 9.796875 
L 23.703125 9.796875 
z
" id="Quicksand-Regular-3f"/>
    </defs>
    <g transform="translate(123.1275 31.28)scale(0.192 -0.192)">
     <use xlink:href="#Quicksand-Regular-48"/>
     <use x="71.999985" xlink:href="#Quicksand-Regular-6f"/>
     <use x="131.499969" xlink:href="#Quicksand-Regular-77"/>
     <use x="206.699951" xlink:href="#Quicksand-Regular-20"/>
     <use x="233.999939" xlink:href="#Quicksand-Regular-74"/>
     <use x="267.899933" xlink:href="#Quicksand-Regular-61"/>
     <use x="328.09993" xlink:href="#Quicksand-Regular-6c"/>
     <use x="351.099915" xlink:href="#Quicksand-Regular-6c"/>
     <use x="374.099899" xlink:href="#Quicksand-Regular-20"/>
     <use x="401.399887" xlink:href="#Quicksand-Regular-61"/>
     <use x="461.599884" xlink:href="#Quicksand-Regular-72"/>
     <use x="500.099869" xlink:href="#Quicksand-Regular-65"/>
     <use x="555.69986" xlink:href="#Quicksand-Regular-20"/>
     <use x="582.999847" xlink:href="#Quicksand-Regular-70"/>
     <use x="643.199844" xlink:href="#Quicksand-Regular-65"/>
     <use x="698.799835" xlink:href="#Quicksand-Regular-6f"/>
     <use x="758.29982" xlink:href="#Quicksand-Regular-70"/>
     <use x="818.499817" xlink:href="#Quicksand-Regular-6c"/>
     <use x="841.499802" xlink:href="#Quicksand-Regular-65"/>
     <use x="897.099792" xlink:href="#Quicksand-Regular-20"/>
     <use x="924.39978" xlink:href="#Quicksand-Regular-69"/>
     <use x="945.799774" xlink:href="#Quicksand-Regular-6e"/>
     <use x="1003.599762" xlink:href="#Quicksand-Regular-20"/>
     <use x="1030.89975" xlink:href="#Quicksand-Regular-46"/>
     <use x="1087.499741" xlink:href="#Quicksand-Regular-61"/>
     <use x="1147.699738" xlink:href="#Quicksand-Regular-6b"/>
     <use x="1201.199722" xlink:href="#Quicksand-Regular-65"/>
     <use x="1256.799713" xlink:href="#Quicksand-Regular-6c"/>
     <use x="1279.799698" xlink:href="#Quicksand-Regular-61"/>
     <use x="1339.999695" xlink:href="#Quicksand-Regular-6e"/>
     <use x="1397.799683" xlink:href="#Quicksand-Regular-64"/>
     <use x="1457.99968" xlink:href="#Quicksand-Regular-3f"/>
    </g>
   </g>
  </g>
 </g>
 <defs>
  <clipPath id="p50c7778f39">
   <rect height="262.44" width="430.94" x="52.28" y="37.28"/>
  </clipPath>
 </defs>
</svg>
