<?xml version="1.0" encoding="utf-8" standalone="no"?>
<!DOCTYPE svg PUBLIC "-//W3C//DTD SVG 1.1//EN"
  "http://www.w3.org/Graphics/SVG/1.1/DTD/svg11.dtd">
<!-- Created with matplotlib (http://matplotlib.org/) -->
<svg height="360pt" version="1.1" viewBox="0 0 504 360" width="504pt" xmlns="http://www.w3.org/2000/svg" xmlns:xlink="http://www.w3.org/1999/xlink">
 <defs>
  <style type="text/css">
*{stroke-linecap:butt;stroke-linejoin:round;}
  </style>
 </defs>
 <g id="figure_1">
  <g id="patch_1">
   <path d="M 0 360 
L 504 360 
L 504 0 
L 0 0 
z
" style="fill:#ffffff;"/>
  </g>
  <g id="axes_1">
   <g id="patch_2">
    <path d="M 52.28 319.72 
L 483.22 319.72 
L 483.22 20.78 
L 52.28 20.78 
z
" style="fill:#ffffff;"/>
   </g>
   <g id="patch_3">
    <path clip-path="url(#pb94a67174e)" d="M 71.868182 319.72 
L 111.044545 319.72 
L 111.044545 315.533165 
L 71.868182 315.533165 
z
" style="fill:#1f77b4;"/>
   </g>
   <g id="patch_4">
    <path clip-path="url(#pb94a67174e)" d="M 111.044545 319.72 
L 150.220909 319.72 
L 150.220909 296.692409 
L 111.044545 296.692409 
z
" style="fill:#1f77b4;"/>
   </g>
   <g id="patch_5">
    <path clip-path="url(#pb94a67174e)" d="M 150.220909 319.72 
L 189.397273 319.72 
L 189.397273 219.235966 
L 150.220909 219.235966 
z
" style="fill:#1f77b4;"/>
   </g>
   <g id="patch_6">
    <path clip-path="url(#pb94a67174e)" d="M 189.397273 319.72 
L 228.573636 319.72 
L 228.573636 81.07042 
L 189.397273 81.07042 
z
" style="fill:#1f77b4;"/>
   </g>
   <g id="patch_7">
    <path clip-path="url(#pb94a67174e)" d="M 228.573636 319.72 
L 267.75 319.72 
L 267.75 35.015238 
L 228.573636 35.015238 
z
" style="fill:#1f77b4;"/>
   </g>
   <g id="patch_8">
    <path clip-path="url(#pb94a67174e)" d="M 267.75 319.72 
L 306.926364 319.72 
L 306.926364 83.163838 
L 267.75 83.163838 
z
" style="fill:#1f77b4;"/>
   </g>
   <g id="patch_9">
    <path clip-path="url(#pb94a67174e)" d="M 306.926364 319.72 
L 346.102727 319.72 
L 346.102727 210.862297 
L 306.926364 210.862297 
z
" style="fill:#1f77b4;"/>
   </g>
   <g id="patch_10">
    <path clip-path="url(#pb94a67174e)" d="M 346.102727 319.72 
L 385.279091 319.72 
L 385.279091 279.94507 
L 346.102727 279.94507 
z
" style="fill:#1f77b4;"/>
   </g>
   <g id="patch_11">
    <path clip-path="url(#pb94a67174e)" d="M 385.279091 319.72 
L 424.455455 319.72 
L 424.455455 310.299622 
L 385.279091 310.299622 
z
" style="fill:#1f77b4;"/>
   </g>
   <g id="patch_12">
    <path clip-path="url(#pb94a67174e)" d="M 424.455455 319.72 
L 463.631818 319.72 
L 463.631818 318.673291 
L 424.455455 318.673291 
z
" style="fill:#1f77b4;"/>
   </g>
   <g id="matplotlib.axis_1">
    <g id="xtick_1">
     <g id="line2d_1">
      <defs>
       <path d="M 0 0 
L 0 3.5 
" id="m37cebdd18c" style="stroke:#000000;stroke-width:0.8;"/>
      </defs>
      <g>
       <use style="stroke:#000000;stroke-width:0.8;" x="106.398355" xlink:href="#m37cebdd18c" y="319.72"/>
      </g>
     </g>
     <g id="text_1">
      <!-- 140 -->
      <defs>
       <path d="M 21.40625 70 
Q 22.5 69.90625 23.25 69.046875 
Q 24 68.203125 24 67 
L 24 3 
Q 24 1.703125 23.046875 0.84375 
Q 22.09375 0 20.703125 0 
Q 19.40625 0 18.5 0.84375 
Q 17.59375 1.703125 17.59375 3 
L 17.59375 61.5 
L 5.09375 54.09375 
Q 4.40625 53.703125 3.703125 53.703125 
Q 2.40625 53.703125 1.453125 54.703125 
Q 0.5 55.703125 0.5 56.90625 
Q 0.5 57.59375 0.953125 58.296875 
Q 1.40625 59 2.09375 59.40625 
L 19 69.59375 
Q 20 70.203125 21.40625 70 
z
" id="Quicksand-Regular-31"/>
       <path d="M 48.5 27.203125 
Q 49.703125 27.203125 50.546875 26.390625 
Q 51.40625 25.59375 51.40625 24.40625 
Q 51.40625 23.203125 50.546875 22.390625 
Q 49.703125 21.59375 48.5 21.59375 
L 41.796875 21.59375 
L 41.796875 3 
Q 41.796875 1.703125 40.890625 0.84375 
Q 40 0 38.703125 0 
Q 37.40625 0 36.59375 0.84375 
Q 35.796875 1.703125 35.796875 3 
L 35.796875 21.59375 
L 6.40625 21.59375 
Q 5.203125 21.59375 4.296875 22.546875 
Q 3.40625 23.5 3.40625 24.703125 
Q 3.40625 25.90625 4.09375 26.703125 
L 36.296875 68.796875 
Q 37.09375 70 38.796875 70 
Q 40.09375 70 40.9375 69.140625 
Q 41.796875 68.296875 41.796875 67 
L 41.796875 27.203125 
L 48.5 27.203125 
z
M 11.59375 27.203125 
L 35.796875 27.203125 
L 35.796875 59.203125 
z
" id="Quicksand-Regular-34"/>
       <path d="M 29.703125 -1 
Q 21.796875 -1 16.390625 3.703125 
Q 11 8.40625 8.25 16.546875 
Q 5.5 24.703125 5.5 35 
Q 5.5 45.40625 8.203125 53.5 
Q 10.90625 61.59375 16.34375 66.296875 
Q 21.796875 71 29.703125 71 
Q 37.59375 71 43.046875 66.34375 
Q 48.5 61.703125 51.25 53.546875 
Q 54 45.40625 54 35 
Q 54 24.703125 51.25 16.546875 
Q 48.5 8.40625 43.046875 3.703125 
Q 37.59375 -1 29.703125 -1 
z
M 29.703125 5.203125 
Q 38.296875 5.203125 42.9375 13.25 
Q 47.59375 21.296875 47.59375 35 
Q 47.59375 48.796875 42.9375 56.84375 
Q 38.296875 64.90625 29.703125 64.90625 
Q 21.203125 64.90625 16.546875 56.84375 
Q 11.90625 48.796875 11.90625 35 
Q 11.90625 21.296875 16.546875 13.25 
Q 21.203125 5.203125 29.703125 5.203125 
z
" id="Quicksand-Regular-30"/>
      </defs>
      <g transform="translate(94.527105 338.56)scale(0.16 -0.16)">
       <use xlink:href="#Quicksand-Regular-31"/>
       <use x="33.299988" xlink:href="#Quicksand-Regular-34"/>
       <use x="88.899979" xlink:href="#Quicksand-Regular-30"/>
      </g>
     </g>
    </g>
    <g id="xtick_2">
     <g id="line2d_2">
      <g>
       <use style="stroke:#000000;stroke-width:0.8;" x="194.757802" xlink:href="#m37cebdd18c" y="319.72"/>
      </g>
     </g>
     <g id="text_2">
      <!-- 160 -->
      <defs>
       <path d="M 29.703125 44.296875 
Q 35.59375 44.296875 40.34375 41.09375 
Q 45.09375 37.90625 47.75 32.59375 
Q 50.40625 27.296875 50.40625 21.40625 
Q 50.40625 15.5 47.546875 10.34375 
Q 44.703125 5.203125 39.703125 2.09375 
Q 34.703125 -1 28.5 -1 
Q 21 -1 15.796875 2.5 
Q 10.59375 6 8.046875 11.703125 
Q 5.5 17.40625 5.5 24 
Q 5.5 32.5 9.09375 42.25 
Q 12.703125 52 19.59375 60.140625 
Q 26.5 68.296875 36 71.90625 
Q 36.796875 72.09375 37.296875 72.09375 
Q 38.59375 72.09375 39.5 71.296875 
Q 40.40625 70.5 40.40625 69 
Q 40.40625 66.90625 38 66.09375 
Q 30 62.796875 22.953125 54.4375 
Q 15.90625 46.09375 13.296875 36.703125 
Q 16.296875 40.203125 20.546875 42.25 
Q 24.796875 44.296875 29.703125 44.296875 
z
M 28.296875 4.796875 
Q 35.296875 4.796875 39.796875 9.4375 
Q 44.296875 14.09375 44.296875 21.40625 
Q 44.296875 25.90625 42.4375 29.796875 
Q 40.59375 33.703125 37.09375 36.09375 
Q 33.59375 38.5 28.796875 38.5 
Q 23.59375 38.5 19.6875 36.140625 
Q 15.796875 33.796875 13.6875 29.84375 
Q 11.59375 25.90625 11.59375 21.09375 
Q 11.59375 16.703125 13.59375 13 
Q 15.59375 9.296875 19.390625 7.046875 
Q 23.203125 4.796875 28.296875 4.796875 
z
" id="Quicksand-Regular-36"/>
      </defs>
      <g transform="translate(183.037802 338.56)scale(0.16 -0.16)">
       <use xlink:href="#Quicksand-Regular-31"/>
       <use x="33.299988" xlink:href="#Quicksand-Regular-36"/>
       <use x="86.999985" xlink:href="#Quicksand-Regular-30"/>
      </g>
     </g>
    </g>
    <g id="xtick_3">
     <g id="line2d_3">
      <g>
       <use style="stroke:#000000;stroke-width:0.8;" x="283.11725" xlink:href="#m37cebdd18c" y="319.72"/>
      </g>
     </g>
     <g id="text_3">
      <!-- 180 -->
      <defs>
       <path d="M 38.40625 35.59375 
Q 43.40625 33.203125 46.546875 28.75 
Q 49.703125 24.296875 49.703125 18.703125 
Q 49.703125 13.40625 46.84375 8.90625 
Q 44 4.40625 39.046875 1.796875 
Q 34.09375 -0.796875 28.203125 -0.796875 
Q 22.296875 -0.796875 17.390625 1.796875 
Q 12.5 4.40625 9.640625 8.90625 
Q 6.796875 13.40625 6.796875 18.703125 
Q 6.796875 24.5 9.890625 28.796875 
Q 13 33.09375 17.796875 35.5 
Q 13.796875 37.59375 11.09375 41.75 
Q 8.40625 45.90625 8.40625 51 
Q 8.40625 56.296875 11.046875 60.640625 
Q 13.703125 65 18.25 67.5 
Q 22.796875 70 28.203125 70 
Q 33.59375 70 38.140625 67.5 
Q 42.703125 65 45.296875 60.640625 
Q 47.90625 56.296875 47.90625 51 
Q 47.90625 45.796875 45.15625 41.796875 
Q 42.40625 37.796875 38.40625 35.59375 
z
M 28.203125 64.296875 
Q 22.09375 64.296875 18.296875 60.59375 
Q 14.5 56.90625 14.5 51 
Q 14.5 47.09375 16.390625 44.046875 
Q 18.296875 41 21.4375 39.296875 
Q 24.59375 37.59375 28.203125 37.59375 
Q 31.796875 37.59375 34.9375 39.296875 
Q 38.09375 41 39.9375 44.046875 
Q 41.796875 47.09375 41.796875 51 
Q 41.796875 56.90625 38 60.59375 
Q 34.203125 64.296875 28.203125 64.296875 
z
M 28.203125 5 
Q 35 5 39.296875 8.84375 
Q 43.59375 12.703125 43.59375 18.703125 
Q 43.59375 22.59375 41.5 25.796875 
Q 39.40625 29 35.84375 30.84375 
Q 32.296875 32.703125 28.203125 32.703125 
Q 24.09375 32.703125 20.59375 30.84375 
Q 17.09375 29 15 25.796875 
Q 12.90625 22.59375 12.90625 18.703125 
Q 12.90625 12.703125 17.15625 8.84375 
Q 21.40625 5 28.203125 5 
z
" id="Quicksand-Regular-38"/>
      </defs>
      <g transform="translate(271.1735 338.56)scale(0.16 -0.16)">
       <use xlink:href="#Quicksand-Regular-31"/>
       <use x="33.299988" xlink:href="#Quicksand-Regular-38"/>
       <use x="89.799973" xlink:href="#Quicksand-Regular-30"/>
      </g>
     </g>
    </g>
    <g id="xtick_4">
     <g id="line2d_4">
      <g>
       <use style="stroke:#000000;stroke-width:0.8;" x="371.476698" xlink:href="#m37cebdd18c" y="319.72"/>
      </g>
     </g>
     <g id="text_4">
      <!-- 200 -->
      <defs>
       <path d="M 49.296875 5.796875 
Q 50.5 5.796875 51.34375 4.9375 
Q 52.203125 4.09375 52.203125 2.90625 
Q 52.203125 1.59375 51.34375 0.796875 
Q 50.5 0 49.296875 0 
L 11.796875 0 
Q 10.40625 0 9.5 0.796875 
Q 8.59375 1.59375 8.59375 3 
Q 8.59375 4.09375 9.40625 5.09375 
L 32.5 30.59375 
Q 38.09375 36.59375 40.796875 41.34375 
Q 43.5 46.09375 43.5 50.703125 
Q 43.5 57.5 39.390625 61.390625 
Q 35.296875 65.296875 28 65.296875 
Q 23.09375 65.296875 19.25 62.9375 
Q 15.40625 60.59375 13.5 55.796875 
Q 12.40625 54 10.90625 54 
Q 9.796875 54 8.796875 54.796875 
Q 7.796875 55.59375 7.796875 56.59375 
Q 7.796875 57.203125 8.1875 58 
Q 8.59375 58.796875 9.203125 59.59375 
Q 11.796875 65 17 68 
Q 22.203125 71 28.40625 71 
Q 38.5 71 44.203125 65.5 
Q 49.90625 60 49.90625 51.09375 
Q 49.90625 45.59375 46.90625 39.84375 
Q 43.90625 34.09375 37 26.5 
L 18.59375 5.796875 
L 49.296875 5.796875 
z
" id="Quicksand-Regular-32"/>
      </defs>
      <g transform="translate(357.420448 338.56)scale(0.16 -0.16)">
       <use xlink:href="#Quicksand-Regular-32"/>
       <use x="56.699997" xlink:href="#Quicksand-Regular-30"/>
       <use x="116.199982" xlink:href="#Quicksand-Regular-30"/>
      </g>
     </g>
    </g>
    <g id="xtick_5">
     <g id="line2d_5">
      <g>
       <use style="stroke:#000000;stroke-width:0.8;" x="459.836145" xlink:href="#m37cebdd18c" y="319.72"/>
      </g>
     </g>
     <g id="text_5">
      <!-- 220 -->
      <g transform="translate(446.003645 338.56)scale(0.16 -0.16)">
       <use xlink:href="#Quicksand-Regular-32"/>
       <use x="56.699997" xlink:href="#Quicksand-Regular-32"/>
       <use x="113.399994" xlink:href="#Quicksand-Regular-30"/>
      </g>
     </g>
    </g>
   </g>
   <g id="matplotlib.axis_2">
    <g id="ytick_1">
     <g id="line2d_6">
      <defs>
       <path d="M 0 0 
L -3.5 0 
" id="m658316b2b6" style="stroke:#000000;stroke-width:0.8;"/>
      </defs>
      <g>
       <use style="stroke:#000000;stroke-width:0.8;" x="52.28" xlink:href="#m658316b2b6" y="319.72"/>
      </g>
     </g>
     <g id="text_6">
      <!-- 0 -->
      <g transform="translate(35.76 325.64)scale(0.16 -0.16)">
       <use xlink:href="#Quicksand-Regular-30"/>
      </g>
     </g>
    </g>
    <g id="ytick_2">
     <g id="line2d_7">
      <g>
       <use style="stroke:#000000;stroke-width:0.8;" x="52.28" xlink:href="#m658316b2b6" y="267.384566"/>
      </g>
     </g>
     <g id="text_7">
      <!-- 50 -->
      <defs>
       <path d="M 25.296875 46.5 
Q 31.703125 46.5 36.84375 43.640625 
Q 42 40.796875 44.953125 35.640625 
Q 47.90625 30.5 47.90625 24.09375 
Q 47.90625 17.09375 44.65625 11.546875 
Q 41.40625 6 35.59375 2.890625 
Q 29.796875 -0.203125 22.40625 -0.203125 
Q 18.203125 -0.203125 14.046875 1.1875 
Q 9.90625 2.59375 6.796875 5.203125 
Q 6.203125 5.59375 5.84375 6.34375 
Q 5.5 7.09375 5.5 7.796875 
Q 5.5 8.796875 6.34375 9.75 
Q 7.203125 10.703125 8.40625 10.703125 
Q 9.5 10.703125 10.59375 9.796875 
Q 13.203125 7.796875 16.25 6.6875 
Q 19.296875 5.59375 22.40625 5.59375 
Q 28.09375 5.59375 32.546875 7.890625 
Q 37 10.203125 39.453125 14.390625 
Q 41.90625 18.59375 41.90625 23.90625 
Q 41.90625 31.5 37 36.140625 
Q 32.09375 40.796875 23.90625 40.796875 
Q 20.796875 40.796875 18.140625 39.890625 
Q 15.5 39 12.203125 37.5 
Q 9.796875 36.296875 9.09375 36.296875 
Q 7.59375 36.296875 6.640625 37.25 
Q 5.703125 38.203125 5.703125 39.5 
Q 5.703125 40 5.796875 40.296875 
L 10.09375 67.5 
Q 10.296875 68.5 11.140625 69.25 
Q 12 70 13.203125 70 
L 43.296875 70 
Q 44.5 70 45.34375 69.140625 
Q 46.203125 68.296875 46.203125 67 
Q 46.203125 65.796875 45.34375 64.9375 
Q 44.5 64.09375 43.296875 64.09375 
L 15.296875 64.09375 
L 11.90625 43.40625 
Q 14.5 44.703125 18.046875 45.59375 
Q 21.59375 46.5 25.296875 46.5 
z
" id="Quicksand-Regular-35"/>
      </defs>
      <g transform="translate(26.975 273.304566)scale(0.16 -0.16)">
       <use xlink:href="#Quicksand-Regular-35"/>
       <use x="54.899994" xlink:href="#Quicksand-Regular-30"/>
      </g>
     </g>
    </g>
    <g id="ytick_3">
     <g id="line2d_8">
      <g>
       <use style="stroke:#000000;stroke-width:0.8;" x="52.28" xlink:href="#m658316b2b6" y="215.049132"/>
      </g>
     </g>
     <g id="text_8">
      <!-- 100 -->
      <g transform="translate(20.9125 220.969132)scale(0.16 -0.16)">
       <use xlink:href="#Quicksand-Regular-31"/>
       <use x="33.299988" xlink:href="#Quicksand-Regular-30"/>
       <use x="92.799973" xlink:href="#Quicksand-Regular-30"/>
      </g>
     </g>
    </g>
    <g id="ytick_4">
     <g id="line2d_9">
      <g>
       <use style="stroke:#000000;stroke-width:0.8;" x="52.28" xlink:href="#m658316b2b6" y="162.713697"/>
      </g>
     </g>
     <g id="text_9">
      <!-- 150 -->
      <g transform="translate(21.6475 168.633697)scale(0.16 -0.16)">
       <use xlink:href="#Quicksand-Regular-31"/>
       <use x="33.299988" xlink:href="#Quicksand-Regular-35"/>
       <use x="88.199982" xlink:href="#Quicksand-Regular-30"/>
      </g>
     </g>
    </g>
    <g id="ytick_5">
     <g id="line2d_10">
      <g>
       <use style="stroke:#000000;stroke-width:0.8;" x="52.28" xlink:href="#m658316b2b6" y="110.378263"/>
      </g>
     </g>
     <g id="text_10">
      <!-- 200 -->
      <g transform="translate(17.1675 116.298263)scale(0.16 -0.16)">
       <use xlink:href="#Quicksand-Regular-32"/>
       <use x="56.699997" xlink:href="#Quicksand-Regular-30"/>
       <use x="116.199982" xlink:href="#Quicksand-Regular-30"/>
      </g>
     </g>
    </g>
    <g id="ytick_6">
     <g id="line2d_11">
      <g>
       <use style="stroke:#000000;stroke-width:0.8;" x="52.28" xlink:href="#m658316b2b6" y="58.042829"/>
      </g>
     </g>
     <g id="text_11">
      <!-- 250 -->
      <g transform="translate(17.9025 63.962829)scale(0.16 -0.16)">
       <use xlink:href="#Quicksand-Regular-32"/>
       <use x="56.699997" xlink:href="#Quicksand-Regular-35"/>
       <use x="111.599991" xlink:href="#Quicksand-Regular-30"/>
      </g>
     </g>
    </g>
   </g>
   <g id="patch_13">
    <path d="M 52.28 319.72 
L 52.28 20.78 
" style="fill:none;stroke:#000000;stroke-linecap:square;stroke-linejoin:miter;stroke-width:0.8;"/>
   </g>
   <g id="patch_14">
    <path d="M 483.22 319.72 
L 483.22 20.78 
" style="fill:none;stroke:#000000;stroke-linecap:square;stroke-linejoin:miter;stroke-width:0.8;"/>
   </g>
   <g id="patch_15">
    <path d="M 52.28 319.72 
L 483.22 319.72 
" style="fill:none;stroke:#000000;stroke-linecap:square;stroke-linejoin:miter;stroke-width:0.8;"/>
   </g>
   <g id="patch_16">
    <path d="M 52.28 20.78 
L 483.22 20.78 
" style="fill:none;stroke:#000000;stroke-linecap:square;stroke-linejoin:miter;stroke-width:0.8;"/>
   </g>
  </g>
 </g>
 <defs>
  <clipPath id="pb94a67174e">
   <rect height="298.94" width="430.94" x="52.28" y="20.78"/>
  </clipPath>
 </defs>
</svg>
