<?xml version="1.0" encoding="utf-8" standalone="no"?>
<!DOCTYPE svg PUBLIC "-//W3C//DTD SVG 1.1//EN"
  "http://www.w3.org/Graphics/SVG/1.1/DTD/svg11.dtd">
<!-- Created with matplotlib (http://matplotlib.org/) -->
<svg height="360pt" version="1.1" viewBox="0 0 360 360" width="360pt" xmlns="http://www.w3.org/2000/svg" xmlns:xlink="http://www.w3.org/1999/xlink">
 <defs>
  <style type="text/css">
*{stroke-linecap:butt;stroke-linejoin:round;}
  </style>
 </defs>
 <g id="figure_1">
  <g id="patch_1">
   <path d="M 0 360 
L 360 360 
L 360 0 
L 0 0 
z
" style="fill:#ffffff;"/>
  </g>
  <g id="axes_1">
   <g id="patch_2">
    <path d="M 52.28 299.72 
L 334.84625 299.72 
L 334.84625 37.28 
L 52.28 37.28 
z
" style="fill:#ffffff;"/>
   </g>
   <g id="patch_3">
    <path clip-path="url(#p5b91a0d507)" d="M 52.28 299.72 
L 80.536625 299.72 
L 80.536625 292.350677 
L 52.28 292.350677 
z
" style="fill:#ffff00;stroke:#000000;stroke-linejoin:miter;"/>
   </g>
   <g id="patch_4">
    <path clip-path="url(#p5b91a0d507)" d="M 80.536625 299.72 
L 108.79325 299.72 
L 108.79325 266.558048 
L 80.536625 266.558048 
z
" style="fill:#ffff00;stroke:#000000;stroke-linejoin:miter;"/>
   </g>
   <g id="patch_5">
    <path clip-path="url(#p5b91a0d507)" d="M 108.79325 299.72 
L 137.049875 299.72 
L 137.049875 186.416665 
L 108.79325 186.416665 
z
" style="fill:#ffff00;stroke:#000000;stroke-linejoin:miter;"/>
   </g>
   <g id="patch_6">
    <path clip-path="url(#p5b91a0d507)" d="M 137.049875 299.72 
L 165.3065 299.72 
L 165.3065 80.482654 
L 137.049875 80.482654 
z
" style="fill:#ffff00;stroke:#000000;stroke-linejoin:miter;"/>
   </g>
   <g id="patch_7">
    <path clip-path="url(#p5b91a0d507)" d="M 165.3065 299.72 
L 193.563125 299.72 
L 193.563125 61.138182 
L 165.3065 61.138182 
z
" style="fill:#ffff00;stroke:#000000;stroke-linejoin:miter;"/>
   </g>
   <g id="patch_8">
    <path clip-path="url(#p5b91a0d507)" d="M 193.563125 299.72 
L 221.81975 299.72 
L 221.81975 99.827125 
L 193.563125 99.827125 
z
" style="fill:#ffff00;stroke:#000000;stroke-linejoin:miter;"/>
   </g>
   <g id="patch_9">
    <path clip-path="url(#p5b91a0d507)" d="M 221.81975 299.72 
L 250.076375 299.72 
L 250.076375 216.815121 
L 221.81975 216.815121 
z
" style="fill:#ffff00;stroke:#000000;stroke-linejoin:miter;"/>
   </g>
   <g id="patch_10">
    <path clip-path="url(#p5b91a0d507)" d="M 250.076375 299.72 
L 278.333 299.72 
L 278.333 279.454363 
L 250.076375 279.454363 
z
" style="fill:#ffff00;stroke:#000000;stroke-linejoin:miter;"/>
   </g>
   <g id="patch_11">
    <path clip-path="url(#p5b91a0d507)" d="M 278.333 299.72 
L 306.589625 299.72 
L 306.589625 294.193008 
L 278.333 294.193008 
z
" style="fill:#ffff00;stroke:#000000;stroke-linejoin:miter;"/>
   </g>
   <g id="patch_12">
    <path clip-path="url(#p5b91a0d507)" d="M 306.589625 299.72 
L 334.84625 299.72 
L 334.84625 298.798835 
L 306.589625 298.798835 
z
" style="fill:#ffff00;stroke:#000000;stroke-linejoin:miter;"/>
   </g>
   <g id="matplotlib.axis_1">
    <g id="xtick_1">
     <g id="line2d_1">
      <defs>
       <path d="M 0 0 
L 0 3.5 
" id="m0b912a9c00" style="stroke:#000000;stroke-width:0.8;"/>
      </defs>
      <g>
       <use style="stroke:#000000;stroke-width:0.8;" x="107.316315" xlink:href="#m0b912a9c00" y="299.72"/>
      </g>
     </g>
     <g id="text_1">
      <!-- 75 -->
      <defs>
       <path d="M 45.703125 70 
Q 47.09375 70 47.84375 69.203125 
Q 48.59375 68.40625 48.59375 67.203125 
Q 48.59375 66.703125 48.296875 65.796875 
L 20.796875 1.703125 
Q 20.40625 0.796875 19.59375 0.25 
Q 18.796875 -0.296875 17.90625 -0.296875 
Q 16.703125 -0.296875 15.75 0.5 
Q 14.796875 1.296875 14.796875 2.5 
Q 14.796875 3.296875 15.09375 4 
L 41 64.296875 
L 8.90625 64.296875 
Q 7.703125 64.296875 6.84375 65.09375 
Q 6 65.90625 6 67.203125 
Q 6 68.40625 6.84375 69.203125 
Q 7.703125 70 8.90625 70 
L 45.703125 70 
z
" id="Quicksand-Regular-37"/>
       <path d="M 25.296875 46.5 
Q 31.703125 46.5 36.84375 43.640625 
Q 42 40.796875 44.953125 35.640625 
Q 47.90625 30.5 47.90625 24.09375 
Q 47.90625 17.09375 44.65625 11.546875 
Q 41.40625 6 35.59375 2.890625 
Q 29.796875 -0.203125 22.40625 -0.203125 
Q 18.203125 -0.203125 14.046875 1.1875 
Q 9.90625 2.59375 6.796875 5.203125 
Q 6.203125 5.59375 5.84375 6.34375 
Q 5.5 7.09375 5.5 7.796875 
Q 5.5 8.796875 6.34375 9.75 
Q 7.203125 10.703125 8.40625 10.703125 
Q 9.5 10.703125 10.59375 9.796875 
Q 13.203125 7.796875 16.25 6.6875 
Q 19.296875 5.59375 22.40625 5.59375 
Q 28.09375 5.59375 32.546875 7.890625 
Q 37 10.203125 39.453125 14.390625 
Q 41.90625 18.59375 41.90625 23.90625 
Q 41.90625 31.5 37 36.140625 
Q 32.09375 40.796875 23.90625 40.796875 
Q 20.796875 40.796875 18.140625 39.890625 
Q 15.5 39 12.203125 37.5 
Q 9.796875 36.296875 9.09375 36.296875 
Q 7.59375 36.296875 6.640625 37.25 
Q 5.703125 38.203125 5.703125 39.5 
Q 5.703125 40 5.796875 40.296875 
L 10.09375 67.5 
Q 10.296875 68.5 11.140625 69.25 
Q 12 70 13.203125 70 
L 43.296875 70 
Q 44.5 70 45.34375 69.140625 
Q 46.203125 68.296875 46.203125 67 
Q 46.203125 65.796875 45.34375 64.9375 
Q 44.5 64.09375 43.296875 64.09375 
L 15.296875 64.09375 
L 11.90625 43.40625 
Q 14.5 44.703125 18.046875 45.59375 
Q 21.59375 46.5 25.296875 46.5 
z
" id="Quicksand-Regular-35"/>
      </defs>
      <g transform="translate(98.780065 318.56)scale(0.16 -0.16)">
       <use xlink:href="#Quicksand-Regular-37"/>
       <use x="51.799988" xlink:href="#Quicksand-Regular-35"/>
      </g>
     </g>
    </g>
    <g id="xtick_2">
     <g id="line2d_2">
      <g>
       <use style="stroke:#000000;stroke-width:0.8;" x="175.119469" xlink:href="#m0b912a9c00" y="299.72"/>
      </g>
     </g>
     <g id="text_2">
      <!-- 100 -->
      <defs>
       <path d="M 21.40625 70 
Q 22.5 69.90625 23.25 69.046875 
Q 24 68.203125 24 67 
L 24 3 
Q 24 1.703125 23.046875 0.84375 
Q 22.09375 0 20.703125 0 
Q 19.40625 0 18.5 0.84375 
Q 17.59375 1.703125 17.59375 3 
L 17.59375 61.5 
L 5.09375 54.09375 
Q 4.40625 53.703125 3.703125 53.703125 
Q 2.40625 53.703125 1.453125 54.703125 
Q 0.5 55.703125 0.5 56.90625 
Q 0.5 57.59375 0.953125 58.296875 
Q 1.40625 59 2.09375 59.40625 
L 19 69.59375 
Q 20 70.203125 21.40625 70 
z
" id="Quicksand-Regular-31"/>
       <path d="M 29.703125 -1 
Q 21.796875 -1 16.390625 3.703125 
Q 11 8.40625 8.25 16.546875 
Q 5.5 24.703125 5.5 35 
Q 5.5 45.40625 8.203125 53.5 
Q 10.90625 61.59375 16.34375 66.296875 
Q 21.796875 71 29.703125 71 
Q 37.59375 71 43.046875 66.34375 
Q 48.5 61.703125 51.25 53.546875 
Q 54 45.40625 54 35 
Q 54 24.703125 51.25 16.546875 
Q 48.5 8.40625 43.046875 3.703125 
Q 37.59375 -1 29.703125 -1 
z
M 29.703125 5.203125 
Q 38.296875 5.203125 42.9375 13.25 
Q 47.59375 21.296875 47.59375 35 
Q 47.59375 48.796875 42.9375 56.84375 
Q 38.296875 64.90625 29.703125 64.90625 
Q 21.203125 64.90625 16.546875 56.84375 
Q 11.90625 48.796875 11.90625 35 
Q 11.90625 21.296875 16.546875 13.25 
Q 21.203125 5.203125 29.703125 5.203125 
z
" id="Quicksand-Regular-30"/>
      </defs>
      <g transform="translate(162.935719 318.56)scale(0.16 -0.16)">
       <use xlink:href="#Quicksand-Regular-31"/>
       <use x="33.299988" xlink:href="#Quicksand-Regular-30"/>
       <use x="92.799973" xlink:href="#Quicksand-Regular-30"/>
      </g>
     </g>
    </g>
    <g id="xtick_3">
     <g id="line2d_3">
      <g>
       <use style="stroke:#000000;stroke-width:0.8;" x="242.922624" xlink:href="#m0b912a9c00" y="299.72"/>
      </g>
     </g>
     <g id="text_3">
      <!-- 125 -->
      <defs>
       <path d="M 49.296875 5.796875 
Q 50.5 5.796875 51.34375 4.9375 
Q 52.203125 4.09375 52.203125 2.90625 
Q 52.203125 1.59375 51.34375 0.796875 
Q 50.5 0 49.296875 0 
L 11.796875 0 
Q 10.40625 0 9.5 0.796875 
Q 8.59375 1.59375 8.59375 3 
Q 8.59375 4.09375 9.40625 5.09375 
L 32.5 30.59375 
Q 38.09375 36.59375 40.796875 41.34375 
Q 43.5 46.09375 43.5 50.703125 
Q 43.5 57.5 39.390625 61.390625 
Q 35.296875 65.296875 28 65.296875 
Q 23.09375 65.296875 19.25 62.9375 
Q 15.40625 60.59375 13.5 55.796875 
Q 12.40625 54 10.90625 54 
Q 9.796875 54 8.796875 54.796875 
Q 7.796875 55.59375 7.796875 56.59375 
Q 7.796875 57.203125 8.1875 58 
Q 8.59375 58.796875 9.203125 59.59375 
Q 11.796875 65 17 68 
Q 22.203125 71 28.40625 71 
Q 38.5 71 44.203125 65.5 
Q 49.90625 60 49.90625 51.09375 
Q 49.90625 45.59375 46.90625 39.84375 
Q 43.90625 34.09375 37 26.5 
L 18.59375 5.796875 
L 49.296875 5.796875 
z
" id="Quicksand-Regular-32"/>
      </defs>
      <g transform="translate(231.330124 318.56)scale(0.16 -0.16)">
       <use xlink:href="#Quicksand-Regular-31"/>
       <use x="33.299988" xlink:href="#Quicksand-Regular-32"/>
       <use x="89.999985" xlink:href="#Quicksand-Regular-35"/>
      </g>
     </g>
    </g>
    <g id="xtick_4">
     <g id="line2d_4">
      <g>
       <use style="stroke:#000000;stroke-width:0.8;" x="310.725778" xlink:href="#m0b912a9c00" y="299.72"/>
      </g>
     </g>
     <g id="text_4">
      <!-- 150 -->
      <g transform="translate(298.909528 318.56)scale(0.16 -0.16)">
       <use xlink:href="#Quicksand-Regular-31"/>
       <use x="33.299988" xlink:href="#Quicksand-Regular-35"/>
       <use x="88.199982" xlink:href="#Quicksand-Regular-30"/>
      </g>
     </g>
    </g>
    <g id="text_5">
     <!-- I.Q. -->
     <defs>
      <path d="M 15.703125 3.09375 
Q 15.59375 1.796875 14.6875 0.890625 
Q 13.796875 0 12.5 0 
Q 11.09375 0 10.25 0.84375 
Q 9.40625 1.703125 9.40625 3.09375 
L 9.40625 66.90625 
Q 9.40625 68.296875 10.296875 69.140625 
Q 11.203125 70 12.59375 70 
Q 13.90625 70 14.796875 69.09375 
Q 15.703125 68.203125 15.703125 66.90625 
L 15.703125 3.09375 
z
" id="Quicksand-Regular-49"/>
      <path d="M 8.703125 0 
Q 7 0 6.09375 1.046875 
Q 5.203125 2.09375 5.203125 3.90625 
L 5.203125 6 
Q 5.203125 7.796875 6.09375 8.796875 
Q 7 9.796875 8.703125 9.796875 
L 9.40625 9.796875 
Q 11.09375 9.796875 12 8.796875 
Q 12.90625 7.796875 12.90625 6 
L 12.90625 3.90625 
Q 12.90625 2.09375 12 1.046875 
Q 11.09375 0 9.40625 0 
L 8.703125 0 
z
" id="Quicksand-Regular-2e"/>
      <path d="M 76.59375 -5.59375 
Q 77.703125 -5.59375 78.5 -6.390625 
Q 79.296875 -7.203125 79.296875 -8.296875 
Q 79.296875 -10.5 76.34375 -12.59375 
Q 73.40625 -14.703125 69.046875 -16.046875 
Q 64.703125 -17.40625 61 -17.40625 
Q 55.296875 -17.40625 51.4375 -16.15625 
Q 47.59375 -14.90625 43 -12.59375 
Q 39.296875 -10.59375 36.6875 -9.6875 
Q 34.09375 -8.796875 30.59375 -8.796875 
Q 29.296875 -8.796875 28.25 -9.09375 
Q 27.203125 -9.40625 25.703125 -10.09375 
Q 23.5 -11.09375 22.5 -11.09375 
Q 21.296875 -11.09375 20.4375 -10.1875 
Q 19.59375 -9.296875 19.59375 -8.09375 
Q 19.59375 -6.09375 21.296875 -5.5 
L 34.40625 -0.796875 
Q 25.703125 0.09375 19 4.9375 
Q 12.296875 9.796875 8.546875 17.59375 
Q 4.796875 25.40625 4.796875 35 
Q 4.796875 45.40625 9.09375 53.59375 
Q 13.40625 61.796875 21 66.390625 
Q 28.59375 71 38.296875 71 
Q 48 71 55.59375 66.390625 
Q 63.203125 61.796875 67.5 53.59375 
Q 71.796875 45.40625 71.796875 35 
Q 71.796875 26.09375 68.546875 18.6875 
Q 65.296875 11.296875 59.5 6.390625 
Q 53.703125 1.5 46 -0.203125 
L 35.5 -3.703125 
Q 38.40625 -4 40.75 -4.953125 
Q 43.09375 -5.90625 46.703125 -7.59375 
Q 50.796875 -9.703125 54 -10.75 
Q 57.203125 -11.796875 61.203125 -11.796875 
Q 64.59375 -11.796875 67.046875 -10.890625 
Q 69.5 -10 71.796875 -8.59375 
Q 72.703125 -8.09375 73.703125 -7.09375 
Q 74.40625 -6.5 75.15625 -6.046875 
Q 75.90625 -5.59375 76.59375 -5.59375 
z
M 11.203125 35 
Q 11.203125 26.296875 14.640625 19.4375 
Q 18.09375 12.59375 24.25 8.796875 
Q 30.40625 5 38.296875 5 
Q 46.203125 5 52.34375 8.796875 
Q 58.5 12.59375 61.953125 19.4375 
Q 65.40625 26.296875 65.40625 35 
Q 65.40625 43.703125 61.953125 50.546875 
Q 58.5 57.40625 52.34375 61.203125 
Q 46.203125 65 38.296875 65 
Q 30.40625 65 24.25 61.203125 
Q 18.09375 57.40625 14.640625 50.546875 
Q 11.203125 43.703125 11.203125 35 
z
" id="Quicksand-Regular-51"/>
     </defs>
     <g transform="translate(182.468125 337.6)scale(0.16 -0.16)">
      <use xlink:href="#Quicksand-Regular-49"/>
      <use x="24.999985" xlink:href="#Quicksand-Regular-2e"/>
      <use x="43.099976" xlink:href="#Quicksand-Regular-51"/>
      <use x="120.59996" xlink:href="#Quicksand-Regular-2e"/>
     </g>
    </g>
   </g>
   <g id="matplotlib.axis_2">
    <g id="ytick_1">
     <g id="line2d_5">
      <defs>
       <path d="M 0 0 
L -3.5 0 
" id="m9dded65bab" style="stroke:#000000;stroke-width:0.8;"/>
      </defs>
      <g>
       <use style="stroke:#000000;stroke-width:0.8;" x="52.28" xlink:href="#m9dded65bab" y="299.72"/>
      </g>
     </g>
     <g id="text_6">
      <!-- 0 -->
      <g transform="translate(35.76 305.64)scale(0.16 -0.16)">
       <use xlink:href="#Quicksand-Regular-30"/>
      </g>
     </g>
    </g>
    <g id="ytick_2">
     <g id="line2d_6">
      <g>
       <use style="stroke:#000000;stroke-width:0.8;" x="52.28" xlink:href="#m9dded65bab" y="253.661734"/>
      </g>
     </g>
     <g id="text_7">
      <!-- 50 -->
      <g transform="translate(26.975 259.581734)scale(0.16 -0.16)">
       <use xlink:href="#Quicksand-Regular-35"/>
       <use x="54.899994" xlink:href="#Quicksand-Regular-30"/>
      </g>
     </g>
    </g>
    <g id="ytick_3">
     <g id="line2d_7">
      <g>
       <use style="stroke:#000000;stroke-width:0.8;" x="52.28" xlink:href="#m9dded65bab" y="207.603468"/>
      </g>
     </g>
     <g id="text_8">
      <!-- 100 -->
      <g transform="translate(20.9125 213.523468)scale(0.16 -0.16)">
       <use xlink:href="#Quicksand-Regular-31"/>
       <use x="33.299988" xlink:href="#Quicksand-Regular-30"/>
       <use x="92.799973" xlink:href="#Quicksand-Regular-30"/>
      </g>
     </g>
    </g>
    <g id="ytick_4">
     <g id="line2d_8">
      <g>
       <use style="stroke:#000000;stroke-width:0.8;" x="52.28" xlink:href="#m9dded65bab" y="161.545202"/>
      </g>
     </g>
     <g id="text_9">
      <!-- 150 -->
      <g transform="translate(21.6475 167.465202)scale(0.16 -0.16)">
       <use xlink:href="#Quicksand-Regular-31"/>
       <use x="33.299988" xlink:href="#Quicksand-Regular-35"/>
       <use x="88.199982" xlink:href="#Quicksand-Regular-30"/>
      </g>
     </g>
    </g>
    <g id="ytick_5">
     <g id="line2d_9">
      <g>
       <use style="stroke:#000000;stroke-width:0.8;" x="52.28" xlink:href="#m9dded65bab" y="115.486936"/>
      </g>
     </g>
     <g id="text_10">
      <!-- 200 -->
      <g transform="translate(17.1675 121.406936)scale(0.16 -0.16)">
       <use xlink:href="#Quicksand-Regular-32"/>
       <use x="56.699997" xlink:href="#Quicksand-Regular-30"/>
       <use x="116.199982" xlink:href="#Quicksand-Regular-30"/>
      </g>
     </g>
    </g>
    <g id="ytick_6">
     <g id="line2d_10">
      <g>
       <use style="stroke:#000000;stroke-width:0.8;" x="52.28" xlink:href="#m9dded65bab" y="69.42867"/>
      </g>
     </g>
     <g id="text_11">
      <!-- 250 -->
      <g transform="translate(17.9025 75.34867)scale(0.16 -0.16)">
       <use xlink:href="#Quicksand-Regular-32"/>
       <use x="56.699997" xlink:href="#Quicksand-Regular-35"/>
       <use x="111.599991" xlink:href="#Quicksand-Regular-30"/>
      </g>
     </g>
    </g>
   </g>
   <g id="patch_13">
    <path d="M 52.28 299.72 
L 52.28 37.28 
" style="fill:none;stroke:#000000;stroke-linecap:square;stroke-linejoin:miter;stroke-width:0.8;"/>
   </g>
   <g id="patch_14">
    <path d="M 334.84625 299.72 
L 334.84625 37.28 
" style="fill:none;stroke:#000000;stroke-linecap:square;stroke-linejoin:miter;stroke-width:0.8;"/>
   </g>
   <g id="patch_15">
    <path d="M 52.28 299.72 
L 334.84625 299.72 
" style="fill:none;stroke:#000000;stroke-linecap:square;stroke-linejoin:miter;stroke-width:0.8;"/>
   </g>
   <g id="patch_16">
    <path d="M 52.28 37.28 
L 334.84625 37.28 
" style="fill:none;stroke:#000000;stroke-linecap:square;stroke-linejoin:miter;stroke-width:0.8;"/>
   </g>
   <g id="text_12">
    <!-- Intelligence of people in Fakeland -->
    <defs>
     <path d="M 32 52.296875 
Q 41.296875 52.296875 45.640625 46.84375 
Q 50 41.40625 50 32.40625 
L 50 3 
Q 50 1.703125 49.09375 0.84375 
Q 48.203125 0 47 0 
Q 45.703125 0 44.84375 0.84375 
Q 44 1.703125 44 3 
L 44 32.09375 
Q 44 38.59375 40.75 42.640625 
Q 37.5 46.703125 30.703125 46.703125 
Q 26.40625 46.703125 22.546875 44.703125 
Q 18.703125 42.703125 16.296875 39.34375 
Q 13.90625 36 13.90625 32.09375 
L 13.90625 3 
Q 13.90625 1.703125 13.046875 0.84375 
Q 12.203125 0 10.90625 0 
Q 9.59375 0 8.75 0.84375 
Q 7.90625 1.703125 7.90625 3 
L 7.90625 47.796875 
Q 7.90625 49.09375 8.75 49.9375 
Q 9.59375 50.796875 10.90625 50.796875 
Q 12.203125 50.796875 13.046875 49.9375 
Q 13.90625 49.09375 13.90625 47.796875 
L 13.90625 42.296875 
Q 16.59375 46.59375 21.640625 49.4375 
Q 26.703125 52.296875 32 52.296875 
z
" id="Quicksand-Regular-6e"/>
     <path d="M 17.90625 45.296875 
L 17.90625 11.796875 
Q 17.90625 8 19.296875 6.640625 
Q 20.703125 5.296875 23 5.296875 
Q 23.59375 5.296875 24.5 5.546875 
Q 25.40625 5.796875 25.90625 5.796875 
Q 26.796875 5.796875 27.4375 5.046875 
Q 28.09375 4.296875 28.09375 3.296875 
Q 28.09375 1.90625 26.5 0.953125 
Q 24.90625 0 22.703125 0 
Q 20 0 17.890625 0.5 
Q 15.796875 1 13.84375 3.5 
Q 11.90625 6 11.90625 11.5 
L 11.90625 45.296875 
L 4.59375 45.296875 
Q 3.40625 45.296875 2.546875 46.09375 
Q 1.703125 46.90625 1.703125 48.09375 
Q 1.703125 49.296875 2.546875 50.09375 
Q 3.40625 50.90625 4.59375 50.90625 
L 11.90625 50.90625 
L 11.90625 62 
Q 11.90625 63.296875 12.75 64.140625 
Q 13.59375 65 14.90625 65 
Q 16.203125 65 17.046875 64.140625 
Q 17.90625 63.296875 17.90625 62 
L 17.90625 50.90625 
L 27.90625 50.90625 
Q 29 50.90625 29.84375 50 
Q 30.703125 49.09375 30.703125 48 
Q 30.703125 46.796875 29.890625 46.046875 
Q 29.09375 45.296875 27.90625 45.296875 
z
" id="Quicksand-Regular-74"/>
     <path d="M 51.09375 28.5 
Q 51.09375 27.296875 50.1875 26.4375 
Q 49.296875 25.59375 48.09375 25.59375 
L 10.296875 25.59375 
Q 10.296875 19.59375 12.75 14.84375 
Q 15.203125 10.09375 19.75 7.34375 
Q 24.296875 4.59375 30.5 4.59375 
Q 35.296875 4.59375 39.09375 6.59375 
Q 42.90625 8.59375 45.203125 11.703125 
Q 46.296875 12.59375 47.296875 12.59375 
Q 48.296875 12.59375 49.09375 11.796875 
Q 49.90625 11 49.90625 10 
Q 49.90625 8.90625 48.90625 7.90625 
Q 45.703125 4 40.84375 1.5 
Q 36 -1 30.59375 -1 
Q 22.90625 -1 17 2.296875 
Q 11.09375 5.59375 7.796875 11.546875 
Q 4.5 17.5 4.5 25.296875 
Q 4.5 33.5 7.75 39.640625 
Q 11 45.796875 16.390625 49.046875 
Q 21.796875 52.296875 27.90625 52.296875 
Q 33.90625 52.296875 39.15625 49.5 
Q 44.40625 46.703125 47.703125 41.296875 
Q 51 35.90625 51.09375 28.5 
z
M 27.90625 46.5 
Q 22.09375 46.5 17.140625 42.5 
Q 12.203125 38.5 10.796875 31 
L 44.90625 31 
L 44.90625 31.796875 
Q 44.40625 36.296875 41.90625 39.640625 
Q 39.40625 43 35.65625 44.75 
Q 31.90625 46.5 27.90625 46.5 
z
" id="Quicksand-Regular-65"/>
     <path d="M 14.5 3 
Q 14.5 1.703125 13.640625 0.84375 
Q 12.796875 0 11.5 0 
Q 10.203125 0 9.34375 0.84375 
Q 8.5 1.703125 8.5 3 
L 8.5 71 
Q 8.5 72.296875 9.34375 73.140625 
Q 10.203125 74 11.5 74 
Q 12.796875 74 13.640625 73.140625 
Q 14.5 72.296875 14.5 71 
L 14.5 3 
z
" id="Quicksand-Regular-6c"/>
     <path d="M 13.703125 3 
Q 13.703125 1.703125 12.84375 0.84375 
Q 12 0 10.703125 0 
Q 9.40625 0 8.546875 0.84375 
Q 7.703125 1.703125 7.703125 3 
L 7.703125 49 
Q 7.703125 50.296875 8.546875 51.140625 
Q 9.40625 52 10.703125 52 
Q 12 52 12.84375 51.140625 
Q 13.703125 50.296875 13.703125 49 
L 13.703125 3 
z
M 10.703125 58.703125 
Q 8.703125 58.703125 7.59375 59.65625 
Q 6.5 60.609375 6.5 62.40625 
L 6.5 63.40625 
Q 6.5 65.203125 7.640625 66.15625 
Q 8.796875 67.109375 10.796875 67.109375 
Q 14.796875 67.109375 14.796875 63.40625 
L 14.796875 62.40625 
Q 14.796875 60.609375 13.75 59.65625 
Q 12.703125 58.703125 10.703125 58.703125 
z
" id="Quicksand-Regular-69"/>
     <path d="M 51.09375 51.09375 
Q 52.40625 51.09375 53.25 50.25 
Q 54.09375 49.40625 54.09375 48 
L 54.09375 4.703125 
Q 54.09375 -3.09375 50.84375 -8.640625 
Q 47.59375 -14.203125 41.9375 -17.09375 
Q 36.296875 -20 29 -20 
Q 25.5 -20 21.640625 -19.09375 
Q 17.796875 -18.203125 15.046875 -16.796875 
Q 12.296875 -15.40625 11.90625 -13.90625 
Q 11.203125 -13.203125 11.203125 -12.296875 
Q 11.203125 -11.296875 12.09375 -10.703125 
Q 12.5 -10.40625 13.09375 -10.40625 
Q 13.703125 -10.40625 15.40625 -11.09375 
L 17.5 -12 
Q 23.703125 -14.40625 29.09375 -14.40625 
Q 38 -14.40625 43.046875 -9.34375 
Q 48.09375 -4.296875 48.09375 4.296875 
L 48.09375 10.5 
Q 45.59375 5.09375 40.1875 2.046875 
Q 34.796875 -1 28.90625 -1 
Q 22 -1 16.453125 2.453125 
Q 10.90625 5.90625 7.703125 12 
Q 4.5 18.09375 4.5 25.703125 
Q 4.5 33.203125 7.703125 39.296875 
Q 10.90625 45.40625 16.453125 48.84375 
Q 22 52.296875 28.796875 52.296875 
Q 35.09375 52.296875 40.34375 49.140625 
Q 45.59375 46 48.09375 41.59375 
L 48.09375 48 
Q 48.09375 49.296875 48.9375 50.1875 
Q 49.796875 51.09375 51.09375 51.09375 
z
M 29.40625 4.59375 
Q 34.90625 4.59375 39.25 7.25 
Q 43.59375 9.90625 46.046875 14.75 
Q 48.5 19.59375 48.5 25.703125 
Q 48.5 31.796875 46.046875 36.59375 
Q 43.59375 41.40625 39.25 44.046875 
Q 34.90625 46.703125 29.40625 46.703125 
Q 24 46.703125 19.640625 43.953125 
Q 15.296875 41.203125 12.84375 36.390625 
Q 10.40625 31.59375 10.40625 25.703125 
Q 10.40625 19.703125 12.84375 14.890625 
Q 15.296875 10.09375 19.640625 7.34375 
Q 24 4.59375 29.40625 4.59375 
z
" id="Quicksand-Regular-67"/>
     <path d="M 30 52.296875 
Q 34.703125 52.296875 38.75 51.25 
Q 42.796875 50.203125 45.25 48.390625 
Q 47.703125 46.59375 47.703125 44.5 
Q 47.703125 43.40625 46.953125 42.5 
Q 46.203125 41.59375 45.09375 41.59375 
Q 44.09375 41.59375 43.4375 42 
Q 42.796875 42.40625 42 43.203125 
Q 40.703125 44.5 39.5 45.09375 
Q 38 45.796875 35.546875 46.25 
Q 33.09375 46.703125 30.296875 46.703125 
Q 24.796875 46.703125 20.25 43.890625 
Q 15.703125 41.09375 13.09375 36.296875 
Q 10.5 31.5 10.5 25.703125 
Q 10.5 19.703125 13 14.890625 
Q 15.5 10.09375 19.953125 7.34375 
Q 24.40625 4.59375 30.09375 4.59375 
Q 33.703125 4.59375 35.84375 5.1875 
Q 38 5.796875 40.09375 6.90625 
Q 40.796875 7.296875 42.5 8.703125 
Q 43.296875 9.40625 43.890625 9.75 
Q 44.5 10.09375 45.203125 10.09375 
Q 46.40625 10.09375 47.09375 9.34375 
Q 47.796875 8.59375 47.796875 7.40625 
Q 47.796875 5.703125 45.390625 3.75 
Q 43 1.796875 38.796875 0.390625 
Q 34.59375 -1 29.5 -1 
Q 22.203125 -1 16.5 2.453125 
Q 10.796875 5.90625 7.640625 12 
Q 4.5 18.09375 4.5 25.703125 
Q 4.5 33 7.703125 39.046875 
Q 10.90625 45.09375 16.703125 48.6875 
Q 22.5 52.296875 30 52.296875 
z
" id="Quicksand-Regular-63"/>
     <path id="Quicksand-Regular-20"/>
     <path d="M 55.09375 25.59375 
Q 55.09375 18.09375 51.796875 12 
Q 48.5 5.90625 42.703125 2.453125 
Q 36.90625 -1 29.796875 -1 
Q 22.703125 -1 16.890625 2.453125 
Q 11.09375 5.90625 7.796875 12 
Q 4.5 18.09375 4.5 25.59375 
Q 4.5 33.09375 7.796875 39.1875 
Q 11.09375 45.296875 16.890625 48.796875 
Q 22.703125 52.296875 29.796875 52.296875 
Q 36.90625 52.296875 42.703125 48.796875 
Q 48.5 45.296875 51.796875 39.1875 
Q 55.09375 33.09375 55.09375 25.59375 
z
M 49.09375 25.59375 
Q 49.09375 31.59375 46.59375 36.390625 
Q 44.09375 41.203125 39.640625 43.953125 
Q 35.203125 46.703125 29.796875 46.703125 
Q 24.40625 46.703125 20 43.953125 
Q 15.59375 41.203125 13.046875 36.390625 
Q 10.5 31.59375 10.5 25.59375 
Q 10.5 19.703125 13.046875 14.890625 
Q 15.59375 10.09375 20 7.34375 
Q 24.40625 4.59375 29.796875 4.59375 
Q 35.203125 4.59375 39.640625 7.296875 
Q 44.09375 10 46.59375 14.796875 
Q 49.09375 19.59375 49.09375 25.59375 
z
" id="Quicksand-Regular-6f"/>
     <path d="M 25.703125 68.296875 
Q 22.5 68.296875 20.75 66.1875 
Q 19 64.09375 19 60.40625 
L 19 50.09375 
L 30.203125 50.09375 
Q 31.296875 50.09375 32.140625 49.296875 
Q 33 48.5 33 47.296875 
Q 33 46.09375 32.140625 45.296875 
Q 31.296875 44.5 30.203125 44.5 
L 19 44.5 
L 19 3 
Q 19 1.703125 18.140625 0.84375 
Q 17.296875 0 16 0 
Q 14.703125 0 13.84375 0.84375 
Q 13 1.703125 13 3 
L 13 44.5 
L 5.703125 44.5 
Q 4.5 44.5 3.703125 45.34375 
Q 2.90625 46.203125 2.90625 47.296875 
Q 2.90625 48.59375 3.703125 49.34375 
Q 4.5 50.09375 5.703125 50.09375 
L 13 50.09375 
L 13 60.40625 
Q 13 66.703125 16.640625 70.140625 
Q 20.296875 73.59375 26.40625 73.59375 
Q 29.203125 73.59375 31.59375 72.75 
Q 34 71.90625 34 70 
Q 34 68.796875 33.203125 68 
Q 32.40625 67.203125 31.40625 67.203125 
Q 30.5 67.203125 29.203125 67.703125 
Q 27 68.296875 25.703125 68.296875 
z
" id="Quicksand-Regular-66"/>
     <path d="M 32.203125 51.5 
Q 38.796875 51.5 44.1875 48.140625 
Q 49.59375 44.796875 52.640625 38.84375 
Q 55.703125 32.90625 55.703125 25.5 
Q 55.703125 18 52.640625 12.046875 
Q 49.59375 6.09375 44.25 2.6875 
Q 38.90625 -0.703125 32.296875 -0.703125 
Q 26.5 -0.703125 21.640625 2.046875 
Q 16.796875 4.796875 13.90625 9.40625 
L 13.90625 -17 
Q 13.90625 -18.296875 13.046875 -19.140625 
Q 12.203125 -20 10.90625 -20 
Q 9.59375 -20 8.75 -19.140625 
Q 7.90625 -18.296875 7.90625 -17 
L 7.90625 48.203125 
Q 7.90625 49.5 8.75 50.390625 
Q 9.59375 51.296875 10.90625 51.296875 
Q 12.203125 51.296875 13.046875 50.390625 
Q 13.90625 49.5 13.90625 48.203125 
L 13.90625 41.40625 
Q 16.5 46.09375 21.390625 48.796875 
Q 26.296875 51.5 32.203125 51.5 
z
M 31.703125 4.90625 
Q 36.90625 4.90625 41.046875 7.546875 
Q 45.203125 10.203125 47.546875 14.890625 
Q 49.90625 19.59375 49.90625 25.5 
Q 49.90625 31.296875 47.546875 35.9375 
Q 45.203125 40.59375 41.046875 43.25 
Q 36.90625 45.90625 31.703125 45.90625 
Q 26.40625 45.90625 22.203125 43.296875 
Q 18 40.703125 15.703125 36.046875 
Q 13.40625 31.40625 13.40625 25.5 
Q 13.40625 19.59375 15.703125 14.890625 
Q 18 10.203125 22.203125 7.546875 
Q 26.40625 4.90625 31.703125 4.90625 
z
" id="Quicksand-Regular-70"/>
     <path d="M 48.796875 70 
Q 50.09375 70 50.9375 69.140625 
Q 51.796875 68.296875 51.796875 67 
Q 51.796875 65.796875 50.9375 64.9375 
Q 50.09375 64.09375 48.796875 64.09375 
L 15.5 64.09375 
L 15.5 39 
L 44.296875 39 
Q 45.59375 39 46.4375 38.203125 
Q 47.296875 37.40625 47.296875 36.09375 
Q 47.296875 34.796875 46.4375 34 
Q 45.59375 33.203125 44.296875 33.203125 
L 15.5 33.203125 
L 15.5 3 
Q 15.5 1.703125 14.640625 0.84375 
Q 13.796875 0 12.5 0 
Q 11.09375 0 10.25 0.84375 
Q 9.40625 1.703125 9.40625 3 
L 9.40625 67 
Q 9.40625 68.296875 10.25 69.140625 
Q 11.09375 70 12.40625 70 
L 48.796875 70 
z
" id="Quicksand-Regular-46"/>
     <path d="M 49.40625 51.09375 
Q 50.703125 51.09375 51.546875 50.1875 
Q 52.40625 49.296875 52.40625 48 
L 52.40625 3 
Q 52.40625 1.703125 51.546875 0.84375 
Q 50.703125 0 49.40625 0 
Q 48.09375 0 47.25 0.84375 
Q 46.40625 1.703125 46.40625 3 
L 46.40625 9.703125 
Q 43.90625 5.203125 38.90625 2.09375 
Q 33.90625 -1 28 -1 
Q 21.296875 -1 15.9375 2.5 
Q 10.59375 6 7.546875 12.09375 
Q 4.5 18.203125 4.5 25.796875 
Q 4.5 33.40625 7.59375 39.453125 
Q 10.703125 45.5 16.046875 48.890625 
Q 21.40625 52.296875 27.90625 52.296875 
Q 33.90625 52.296875 38.90625 49.390625 
Q 43.90625 46.5 46.40625 41.796875 
L 46.40625 48 
Q 46.40625 49.296875 47.25 50.1875 
Q 48.09375 51.09375 49.40625 51.09375 
z
M 28.59375 4.59375 
Q 33.796875 4.59375 37.9375 7.34375 
Q 42.09375 10.09375 44.4375 14.9375 
Q 46.796875 19.796875 46.796875 25.796875 
Q 46.796875 31.59375 44.4375 36.390625 
Q 42.09375 41.203125 37.9375 43.953125 
Q 33.796875 46.703125 28.59375 46.703125 
Q 23.40625 46.703125 19.25 44 
Q 15.09375 41.296875 12.75 36.546875 
Q 10.40625 31.796875 10.40625 25.796875 
Q 10.40625 19.796875 12.703125 14.9375 
Q 15 10.09375 19.140625 7.34375 
Q 23.296875 4.59375 28.59375 4.59375 
z
" id="Quicksand-Regular-61"/>
     <path d="M 48.40625 5.296875 
Q 49.296875 4.296875 49.296875 3 
Q 49.296875 1.703125 48.25 0.84375 
Q 47.203125 0 46.296875 0 
Q 45 0 44.09375 1.09375 
L 22 24.5 
L 14.5 18.09375 
L 14.5 3 
Q 14.5 1.703125 13.640625 0.84375 
Q 12.796875 0 11.5 0 
Q 10.203125 0 9.34375 0.84375 
Q 8.5 1.703125 8.5 3 
L 8.5 71 
Q 8.5 72.296875 9.34375 73.140625 
Q 10.203125 74 11.5 74 
Q 12.796875 74 13.640625 73.140625 
Q 14.5 72.296875 14.5 71 
L 14.5 25.40625 
L 43.40625 50.296875 
Q 44.296875 51.296875 45.5 51.296875 
Q 46.59375 51.296875 47.5 50.34375 
Q 48.40625 49.40625 48.40625 48.296875 
Q 48.40625 47.09375 47.296875 46 
L 26.703125 28.5 
L 48.40625 5.296875 
z
" id="Quicksand-Regular-6b"/>
     <path d="M 49.40625 74 
Q 50.703125 74 51.546875 73.140625 
Q 52.40625 72.296875 52.40625 71 
L 52.40625 3 
Q 52.40625 1.703125 51.546875 0.84375 
Q 50.703125 0 49.40625 0 
Q 48.09375 0 47.25 0.84375 
Q 46.40625 1.703125 46.40625 3 
L 46.40625 10 
Q 43.90625 5.40625 38.953125 2.203125 
Q 34 -1 28 -1 
Q 21.40625 -1 16.046875 2.453125 
Q 10.703125 5.90625 7.59375 12 
Q 4.5 18.09375 4.5 25.703125 
Q 4.5 33.203125 7.59375 39.296875 
Q 10.703125 45.40625 16.046875 48.84375 
Q 21.40625 52.296875 27.90625 52.296875 
Q 33.796875 52.296875 38.796875 49.34375 
Q 43.796875 46.40625 46.40625 41.703125 
L 46.40625 71 
Q 46.40625 72.296875 47.25 73.140625 
Q 48.09375 74 49.40625 74 
z
M 28.59375 4.59375 
Q 33.796875 4.59375 37.9375 7.296875 
Q 42.09375 10 44.4375 14.84375 
Q 46.796875 19.703125 46.796875 25.703125 
Q 46.796875 31.59375 44.4375 36.390625 
Q 42.09375 41.203125 37.9375 43.953125 
Q 33.796875 46.703125 28.59375 46.703125 
Q 23.40625 46.703125 19.25 43.953125 
Q 15.09375 41.203125 12.75 36.390625 
Q 10.40625 31.59375 10.40625 25.703125 
Q 10.40625 19.703125 12.75 14.890625 
Q 15.09375 10.09375 19.25 7.34375 
Q 23.40625 4.59375 28.59375 4.59375 
z
" id="Quicksand-Regular-64"/>
    </defs>
    <g transform="translate(45.102125 31.28)scale(0.192 -0.192)">
     <use xlink:href="#Quicksand-Regular-49"/>
     <use x="24.999985" xlink:href="#Quicksand-Regular-6e"/>
     <use x="82.799973" xlink:href="#Quicksand-Regular-74"/>
     <use x="116.699966" xlink:href="#Quicksand-Regular-65"/>
     <use x="172.299957" xlink:href="#Quicksand-Regular-6c"/>
     <use x="195.299942" xlink:href="#Quicksand-Regular-6c"/>
     <use x="218.299927" xlink:href="#Quicksand-Regular-69"/>
     <use x="239.699921" xlink:href="#Quicksand-Regular-67"/>
     <use x="301.699905" xlink:href="#Quicksand-Regular-65"/>
     <use x="357.299896" xlink:href="#Quicksand-Regular-6e"/>
     <use x="415.099884" xlink:href="#Quicksand-Regular-63"/>
     <use x="466.499878" xlink:href="#Quicksand-Regular-65"/>
     <use x="522.099869" xlink:href="#Quicksand-Regular-20"/>
     <use x="549.399857" xlink:href="#Quicksand-Regular-6f"/>
     <use x="608.899841" xlink:href="#Quicksand-Regular-66"/>
     <use x="644.199829" xlink:href="#Quicksand-Regular-20"/>
     <use x="671.499817" xlink:href="#Quicksand-Regular-70"/>
     <use x="731.699814" xlink:href="#Quicksand-Regular-65"/>
     <use x="787.299805" xlink:href="#Quicksand-Regular-6f"/>
     <use x="846.799789" xlink:href="#Quicksand-Regular-70"/>
     <use x="906.999786" xlink:href="#Quicksand-Regular-6c"/>
     <use x="929.999771" xlink:href="#Quicksand-Regular-65"/>
     <use x="985.599762" xlink:href="#Quicksand-Regular-20"/>
     <use x="1012.89975" xlink:href="#Quicksand-Regular-69"/>
     <use x="1034.299744" xlink:href="#Quicksand-Regular-6e"/>
     <use x="1092.099731" xlink:href="#Quicksand-Regular-20"/>
     <use x="1119.399719" xlink:href="#Quicksand-Regular-46"/>
     <use x="1175.99971" xlink:href="#Quicksand-Regular-61"/>
     <use x="1236.199707" xlink:href="#Quicksand-Regular-6b"/>
     <use x="1289.699692" xlink:href="#Quicksand-Regular-65"/>
     <use x="1345.299683" xlink:href="#Quicksand-Regular-6c"/>
     <use x="1368.299667" xlink:href="#Quicksand-Regular-61"/>
     <use x="1428.499664" xlink:href="#Quicksand-Regular-6e"/>
     <use x="1486.299652" xlink:href="#Quicksand-Regular-64"/>
    </g>
   </g>
  </g>
 </g>
 <defs>
  <clipPath id="p5b91a0d507">
   <rect height="262.44" width="282.56625" x="52.28" y="37.28"/>
  </clipPath>
 </defs>
</svg>
