<?xml version="1.0" encoding="UTF-8" standalone="no"?>
<!-- Created with Inkscape (http://www.inkscape.org/) -->

<svg
   xmlns:dc="http://purl.org/dc/elements/1.1/"
   xmlns:cc="http://creativecommons.org/ns#"
   xmlns:rdf="http://www.w3.org/1999/02/22-rdf-syntax-ns#"
   xmlns:svg="http://www.w3.org/2000/svg"
   xmlns="http://www.w3.org/2000/svg"
   xmlns:sodipodi="http://sodipodi.sourceforge.net/DTD/sodipodi-0.dtd"
   xmlns:inkscape="http://www.inkscape.org/namespaces/inkscape"
   version="1.1"
   id="svg2"
   xml:space="preserve"
   width="1920"
   height="1080"
   viewBox="0 0 1919.9999 1080"
   sodipodi:docname="logo_white_layers_hd.svg"
   inkscape:version="0.92.3 (2405546, 2018-03-11)"><metadata
     id="metadata8"><rdf:RDF><cc:Work
         rdf:about=""><dc:format>image/svg+xml</dc:format><dc:type
           rdf:resource="http://purl.org/dc/dcmitype/StillImage" /><dc:title></dc:title></cc:Work></rdf:RDF></metadata><defs
     id="defs6"><clipPath
       clipPathUnits="userSpaceOnUse"
       id="clipPath18"><path
         d="M 0,404.205 H 896.205 V 0 H 0 Z"
         id="path16"
         inkscape:connector-curvature="0" /></clipPath></defs><sodipodi:namedview
     pagecolor="#ffffff"
     bordercolor="#666666"
     borderopacity="1"
     objecttolerance="10"
     gridtolerance="10"
     guidetolerance="10"
     inkscape:pageopacity="0"
     inkscape:pageshadow="2"
     inkscape:window-width="1920"
     inkscape:window-height="1026"
     id="namedview4"
     showgrid="false"
     inkscape:pagecheckerboard="true"
     showguides="true"
     inkscape:guide-bbox="true"
     inkscape:zoom="0.56237136"
     inkscape:cx="787.68281"
     inkscape:cy="357.06096"
     inkscape:window-x="0"
     inkscape:window-y="25"
     inkscape:window-maximized="1"
     inkscape:current-layer="layer3" /><g
     id="g10"
     inkscape:groupmode="layer"
     inkscape:label="main"
     transform="matrix(1.3333333,0,0,-1.3333333,0,1080)"
     sodipodi:insensitive="true"
     style="display:inline"><path
       transform="matrix(0.75000002,0,0,-0.75000002,0,404.20501)"
       inkscape:connector-curvature="0"
       id="path22"
       style="display:inline;fill:#72bf44;fill-opacity:1;fill-rule:nonzero;stroke:none;stroke-width:1.33333325"
       d="m 579.78428,4.1787296 h -25.94 c -1.89867,0 -3.43733,-1.5386666 -3.43733,-3.43733324 V -83.778602 c 0,-1.899999 1.53866,-3.438666 3.43733,-3.438666 h 25.94 c 31.00933,0 44.06533,22.239999 44.67866,44.475999 0.608,23.254666 -12.24533,46.9199986 -44.67866,46.9199986 M 578.69094,-123.17593 h -60.72266 c -1.89867,0 -3.43733,1.54 -3.43733,3.43733 V 36.700062 c 0,1.897333 1.53866,3.437333 3.43733,3.437333 h 60.72266 c 57.15867,0 82.35467,-41.7626653 81.65334,-83.055998 -0.696,-40.361332 -25.66,-80.257327 -81.65334,-80.257327" /><path
       transform="matrix(0.75000002,0,0,-0.75000002,0,404.20501)"
       inkscape:connector-curvature="0"
       id="path26"
       style="display:inline;fill:#72bf44;fill-opacity:1;fill-rule:nonzero;stroke:none;stroke-width:1.33333325"
       d="m 704.06868,-85.956068 h -40.06934 c -1.89866,0 -3.43733,-1.538667 -3.43733,-3.438667 V -120.2174 c 0,-1.89867 1.53867,-3.43733 3.43733,-3.43733 h 127.508 c 1.89733,0 3.43733,1.53866 3.43733,3.43733 v 30.822665 c 0,1.9 -1.54,3.438667 -3.43733,3.438667 h -40.07067 c -1.89733,0 -3.43733,1.538666 -3.43733,3.437333 V 36.219929 c 0,1.898666 -1.53867,3.437333 -3.43733,3.437333 h -33.61734 c -1.89866,0 -3.43733,-1.538667 -3.43733,-3.437333 V -82.518735 c 0,-1.898667 -1.54,-3.437333 -3.43866,-3.437333" /><path
       transform="matrix(0.75000002,0,0,-0.75000002,0,404.20501)"
       inkscape:connector-curvature="0"
       id="path30"
       style="display:inline;fill:#3c4552;fill-opacity:1;fill-rule:nonzero;stroke:none;stroke-width:1.33333325"
       d="m 875.08174,7.3271295 c -28.49467,0 -42.9,-22.4119995 -42.9,-46.4186655 0,-23.690666 14.728,-46.741332 42.9,-46.741332 26.248,0 42.89466,23.050666 42.89466,46.741332 0,24.006666 -14.40533,46.4186655 -42.89466,46.4186655 M 875.2724,-123.14487 c -49.20799,0 -79.92133,36.981335 -79.92133,81.936001 0,45.2693319 30.08667,81.929331 80.23733,81.929331 50.14534,0 80.548,-36.6599991 80.548,-81.929331 0,-44.954666 -31.65466,-81.936001 -80.864,-81.936001" /><path
       transform="matrix(0.75000002,0,0,-0.75000002,0,404.20501)"
       inkscape:connector-curvature="0"
       id="path34"
       style="display:inline;fill:#3c4552;fill-opacity:1;fill-rule:nonzero;stroke:none;stroke-width:1.33333325"
       d="m 1088.7764,39.657795 c -0.6893,0 -1.248,-0.558666 -1.248,-1.248 v -82.613331 c 0,-35.093332 -27.6107,-58.050664 -78.9467,-31.107999 -0.416,0.218667 -0.6906,0.661333 -0.6906,1.130667 V 38.409795 c 0,0.689334 -0.5573,1.248 -1.248,1.248 h -36.83596 c -0.688,0 -1.24667,-0.558666 -1.24667,-1.248 V -122.3382 c 0,-0.68933 0.55867,-1.248 1.24667,-1.248 l 35.10666,-0.10533 c 0.6307,0 1.164,0.47333 1.2373,1.1 l 0.1494,21 c 0.12,1.016 1.3466,1.424 2.092,0.72133 15.6573,-14.784 31.4506,-22.324 50.86,-22.324 37.7066,0 67.9373,28.282665 67.9373,78.662664 v 82.941331 c 0,0.689334 -0.5587,1.248 -1.248,1.248 z" /><path
       transform="matrix(0.75000002,0,0,-0.75000002,0,404.20501)"
       inkscape:connector-curvature="0"
       id="path38"
       style="display:inline;fill:#3c4552;fill-opacity:1;fill-rule:nonzero;stroke:none;stroke-width:1.33333325"
       d="m 1181.8611,-64.494469 c 7.2773,-16.317333 23.0733,-24.473332 41.928,-24.473332 20.2666,0 35.2946,8.374666 39.8773,25.126666 0.772,2.818666 -1.448,5.602666 -4.3707,5.602666 h -73.28 c -3.2093,0 -5.4613,-3.324 -4.1546,-6.256 m 186.6213,89.021331 c 0,-5.562666 1.9533,-10.671999 5.196,-14.6999992 h -2.388 -145.8267 c -24.8426,0 -40.624,-13.1959997 -45.3506,-30.1226658 -0.7867,-2.82 1.4386,-5.606667 4.368,-5.606667 h 113.584 c 2.3453,0 4.3333,-1.825333 4.496,-4.165333 4.3106,-62.218665 -28.3734,-93.477327 -80.052,-93.477327 -51.2227,0 -83.8747,34.577329 -83.8747,82.591994 0,50.5839988 33.04,80.823998 87.46,80.823998 13.0387,0 101.3133,0.954667 148.8907,0.832 -4.0187,-4.216 -6.5027,-9.906666 -6.5027,-16.176" /><path
       transform="matrix(0.75000002,0,0,-0.75000002,0,404.20501)"
       inkscape:connector-curvature="0"
       id="path42"
       style="display:inline;fill:#72bf44;fill-opacity:1;fill-rule:nonzero;stroke:none;stroke-width:1.33333325"
       d="m 1405.4691,24.942996 c 0,7.732 -6.268,13.999999 -14,13.999999 -7.732,0 -14,-6.267999 -14,-13.999999 0,-7.732 6.268,-14 14,-14 7.732,0 14,6.268 14,14" /></g><g
     inkscape:groupmode="layer"
     id="layer2"
     inkscape:label="tagline"
     style="display:none"
     transform="translate(0,541.06)"
     sodipodi:insensitive="true"><g
       style="display:inline"
       id="g44"
       transform="matrix(1.3333333,0,0,-1.3333333,811.43454,104.02766)"><path
         d="m 0,0 c 0,0.461 -0.195,0.893 -0.583,1.293 -0.388,0.4 -1.226,0.849 -2.512,1.347 -1.287,0.497 -2.136,0.825 -2.549,0.983 -0.413,0.157 -0.874,0.395 -1.383,0.71 -0.51,0.315 -0.947,0.655 -1.311,1.02 -0.364,0.364 -0.698,0.849 -1.001,1.456 -0.304,0.606 -0.455,1.359 -0.455,2.257 0,0.582 0.109,1.207 0.327,1.875 0.219,0.667 0.607,1.305 1.165,1.912 0.558,0.606 1.323,1.134 2.294,1.584 0.971,0.449 2.149,0.673 3.532,0.673 1.505,0 2.846,-0.236 4.023,-0.71 1.178,-0.473 2.106,-1.098 2.786,-1.875 L 1.457,9.612 c -0.462,0.51 -1.051,0.941 -1.767,1.293 -0.716,0.352 -1.474,0.528 -2.275,0.528 -0.874,0 -1.554,-0.201 -2.039,-0.601 -0.486,-0.4 -0.729,-0.904 -0.729,-1.511 0,-0.437 0.188,-0.868 0.565,-1.293 C -4.412,7.604 -3.344,7.069 -1.584,6.427 0.176,5.783 1.426,5.194 2.167,4.66 2.906,4.126 3.477,3.508 3.877,2.804 4.278,2.1 4.479,1.25 4.479,0.255 4.479,-0.861 4.156,-1.894 3.514,-2.84 2.87,-3.786 1.984,-4.533 0.855,-5.079 c -1.128,-0.546 -2.494,-0.819 -4.096,-0.819 -0.898,0 -1.875,0.109 -2.93,0.328 -1.057,0.217 -2.016,0.569 -2.877,1.055 -0.862,0.486 -1.547,0.984 -2.057,1.494 l 2.694,3.167 c 0.583,-0.631 1.353,-1.19 2.312,-1.675 0.959,-0.486 1.985,-0.728 3.077,-0.728 0.995,0 1.748,0.212 2.257,0.637 C -0.255,-1.195 0,-0.655 0,0"
         style="fill:#3c4552;fill-opacity:1;fill-rule:nonzero;stroke:none"
         id="path46"
         inkscape:connector-curvature="0" /></g><g
       style="display:inline"
       id="g48"
       transform="matrix(1.3333333,0,0,-1.3333333,843.32907,87.66699)"><path
         d="m 0,0 c 0.364,0.582 0.886,1.116 1.565,1.602 0.68,0.485 1.414,0.825 2.204,1.019 0.788,0.194 1.523,0.292 2.202,0.292 2.015,0 3.556,-0.564 4.624,-1.693 1.068,-1.129 1.602,-2.81 1.602,-5.043 V -17.805 H 7.719 v 13.181 c 0,1.237 -0.286,2.166 -0.856,2.785 C 6.292,-1.22 5.534,-0.91 4.587,-0.91 3.738,-0.91 2.955,-1.172 2.239,-1.693 1.523,-2.216 1.031,-2.853 0.765,-3.604 V -17.805 H -3.75 v 12.817 c 0,1.335 -0.28,2.348 -0.838,3.04 -0.558,0.692 -1.371,1.038 -2.439,1.038 -0.85,0 -1.615,-0.279 -2.294,-0.838 -0.68,-0.559 -1.141,-1.226 -1.384,-2.002 v -14.055 h -4.478 V 2.476 h 3.604 l 0.802,-2.002 h 0.145 c 0.51,0.703 1.238,1.286 2.185,1.747 0.947,0.461 1.99,0.692 3.131,0.692 2.573,0 4.296,-0.972 5.17,-2.913 z"
         style="fill:#3c4552;fill-opacity:1;fill-rule:nonzero;stroke:none"
         id="path50"
         inkscape:connector-curvature="0" /></g><g
       style="display:inline"
       id="g52"
       transform="matrix(1.3333333,0,0,-1.3333333,879.78747,104.65913)"><path
         d="m 0,0 v 3.496 c -2.063,0.121 -3.671,-0.073 -4.824,-0.583 -1.154,-0.51 -1.73,-1.31 -1.73,-2.403 0,-0.704 0.242,-1.286 0.728,-1.747 0.486,-0.462 1.141,-0.693 1.967,-0.693 0.801,0 1.547,0.183 2.239,0.547 C -0.928,-1.019 -0.388,-0.559 0,0 m -3.422,15.548 c 2.5,0 4.399,-0.517 5.698,-1.548 1.298,-1.032 1.948,-2.676 1.948,-4.934 V 0.547 c 0,-1.457 0.533,-2.185 1.602,-2.185 H 6.372 V -4.77 c -0.559,-0.339 -1.25,-0.509 -2.076,-0.509 -0.922,0 -1.687,0.207 -2.293,0.619 -0.607,0.412 -1.069,0.971 -1.384,1.675 H 0.474 c -1.287,-1.626 -3.12,-2.44 -5.498,-2.44 -0.923,0 -1.846,0.189 -2.768,0.565 -0.922,0.376 -1.681,1.025 -2.275,1.948 -0.595,0.922 -0.892,1.93 -0.892,3.021 0,2.234 0.977,3.909 2.931,5.025 1.953,1.116 4.63,1.614 8.028,1.493 v 1.82 c 0,1.239 -0.297,2.118 -0.892,2.64 -0.595,0.522 -1.438,0.783 -2.53,0.783 -0.51,0 -1.033,-0.085 -1.566,-0.255 C -5.522,11.445 -5.989,11.172 -6.39,10.796 -6.791,10.419 -7.1,10.001 -7.318,9.54 l -3.204,2.403 c 1.747,2.403 4.114,3.605 7.1,3.605"
         style="fill:#3c4552;fill-opacity:1;fill-rule:nonzero;stroke:none"
         id="path54"
         inkscape:connector-curvature="0" /></g><g
       style="display:inline"
       id="g56"
       transform="matrix(1.3333333,0,0,-1.3333333,908.624,84.07446)"><path
         d="m 0,0 v -4.479 c -0.729,0.146 -1.493,0.219 -2.294,0.219 -0.923,0 -1.827,-0.177 -2.712,-0.528 -0.887,-0.353 -1.597,-0.844 -2.131,-1.475 v -14.236 h -4.442 v 20.28 h 3.459 l 0.947,-2.694 h 0.146 c 0.437,0.922 1.11,1.669 2.021,2.239 0.91,0.57 1.971,0.856 3.185,0.856 C -1.092,0.182 -0.486,0.121 0,0"
         style="fill:#3c4552;fill-opacity:1;fill-rule:nonzero;stroke:none"
         id="path58"
         inkscape:connector-curvature="0" /></g><g
       style="display:inline"
       id="g60"
       transform="matrix(1.3333333,0,0,-1.3333333,921.294,111.64873)"><path
         d="M 0,0 C -1.797,0 -3.192,0.503 -4.187,1.511 -5.183,2.518 -5.68,4.102 -5.68,6.262 v 10.741 h -2.767 v 2.804 l 2.767,0.91 1.493,4.952 h 2.913 V 20.462 H 4.005 V 17.003 H -1.274 V 6.262 c 0,-0.85 0.218,-1.487 0.655,-1.911 0.437,-0.425 1.031,-0.637 1.784,-0.637 0.534,0 1.062,0.078 1.584,0.236 0.522,0.157 0.952,0.358 1.293,0.601 L 5.243,1.128 C 4.078,0.376 2.33,0 0,0"
         style="fill:#3c4552;fill-opacity:1;fill-rule:nonzero;stroke:none"
         id="path62"
         inkscape:connector-curvature="0" /></g><g
       style="display:inline"
       id="g64"
       transform="matrix(1.3333333,0,0,-1.3333333,930.9548,107.66833)"><path
         d="m 0,0 c 0,0.874 0.297,1.614 0.892,2.221 0.594,0.606 1.316,0.91 2.167,0.91 0.412,0 0.861,-0.104 1.347,-0.31 C 4.891,2.615 5.303,2.251 5.644,1.729 5.983,1.207 6.153,0.631 6.153,0 6.153,-0.825 5.85,-1.535 5.243,-2.13 4.636,-2.726 3.908,-3.022 3.059,-3.022 2.208,-3.022 1.486,-2.726 0.892,-2.13 0.297,-1.535 0,-0.825 0,0"
         style="fill:#3c4552;fill-opacity:1;fill-rule:nonzero;stroke:none"
         id="path66"
         inkscape:connector-curvature="0" /></g><g
       style="display:inline"
       id="g68"
       transform="matrix(1.3333333,0,0,-1.3333333,976.58627,88.63833)"><path
         d="m 0,0 c 0.293,0.631 0.76,1.202 1.402,1.711 0.643,0.51 1.36,0.874 2.149,1.093 0.789,0.218 1.535,0.328 2.238,0.328 1.967,0 3.479,-0.56 4.533,-1.675 1.057,-1.117 1.584,-2.744 1.584,-4.88 V -17.076 H 9.104 v 13.071 c 0,1.481 -0.346,2.621 -1.038,3.423 -0.693,0.801 -1.644,1.201 -2.859,1.201 -0.85,0 -1.619,-0.2 -2.312,-0.6 C 2.203,-0.382 1.687,-0.837 1.348,-1.347 1.008,-1.856 0.777,-2.307 0.656,-2.694 v -14.382 h -2.84 v 12.852 c 0,0.729 -0.109,1.481 -0.328,2.258 -0.218,0.777 -0.642,1.402 -1.273,1.875 -0.633,0.474 -1.408,0.71 -2.331,0.71 -0.559,0 -1.159,-0.128 -1.802,-0.383 -0.644,-0.254 -1.214,-0.679 -1.712,-1.273 -0.497,-0.596 -0.819,-1.22 -0.965,-1.876 v -14.163 h -2.84 V 2.73 h 2.185 l 0.583,-2.111 h 0.146 c 0.533,0.825 1.268,1.45 2.202,1.875 0.934,0.425 1.912,0.638 2.93,0.638 0.68,0 1.379,-0.098 2.094,-0.292 C -2.578,2.646 -1.947,2.294 -1.4,1.784 -0.855,1.274 -0.436,0.68 -0.145,0 Z"
         style="fill:#3c4552;fill-opacity:1;fill-rule:nonzero;stroke:none"
         id="path70"
         inkscape:connector-curvature="0" /></g><g
       style="display:inline"
       id="g72"
       transform="matrix(1.3333333,0,0,-1.3333333,1002.8507,97.95859)"><path
         d="m 0,0 c 0,-2.671 0.431,-4.661 1.293,-5.972 0.861,-1.31 2.227,-1.965 4.096,-1.965 1.869,0 3.204,0.619 4.005,1.856 0.801,1.238 1.202,3.18 1.202,5.826 0,2.67 -0.432,4.654 -1.293,5.953 C 8.441,6.996 7.063,7.646 5.17,7.646 3.325,7.646 2.003,7.026 1.201,5.789 0.4,4.551 0,2.621 0,0 m 5.17,-10.414 c -5.389,0 -8.083,3.398 -8.083,10.195 0,2.379 0.328,4.315 0.983,5.808 0.656,1.492 1.584,2.615 2.785,3.367 1.203,0.753 2.713,1.129 4.534,1.129 1.092,0 2.141,-0.158 3.149,-0.473 1.007,-0.316 1.881,-0.868 2.622,-1.657 0.739,-0.789 1.317,-1.833 1.73,-3.131 0.412,-1.299 0.618,-2.919 0.618,-4.861 0,-1.554 -0.158,-2.961 -0.473,-4.224 -0.316,-1.261 -0.807,-2.354 -1.474,-3.276 -0.668,-0.923 -1.537,-1.633 -2.604,-2.13 -1.068,-0.497 -2.33,-0.747 -3.787,-0.747"
         style="fill:#3c4552;fill-opacity:1;fill-rule:nonzero;stroke:none"
         id="path74"
         inkscape:connector-curvature="0" /></g><g
       style="display:inline"
       id="g76"
       transform="matrix(1.3333333,0,0,-1.3333333,1035.5225,108.59139)"><path
         d="m 0,0 c 1.967,0 3.532,0.686 4.697,2.058 1.165,1.371 1.748,3.355 1.748,5.953 0,1.698 -0.224,3.089 -0.674,4.169 -0.449,1.08 -1.074,1.886 -1.875,2.421 -0.8,0.534 -1.772,0.801 -2.913,0.801 -0.777,0 -1.553,-0.176 -2.33,-0.528 -0.777,-0.353 -1.383,-0.832 -1.82,-1.438 V 0.547 C -2.318,0.183 -1.262,0 0,0 m -6.007,-1.42 v 26.943 h 2.803 v -9.174 h 0.146 c 0.607,0.485 1.353,0.861 2.24,1.129 0.885,0.266 1.741,0.4 2.566,0.4 1.043,0 2.026,-0.183 2.949,-0.546 0.922,-0.364 1.724,-0.929 2.404,-1.693 0.678,-0.765 1.212,-1.754 1.601,-2.968 0.389,-1.214 0.583,-2.634 0.583,-4.26 0,-1.601 -0.2,-3.076 -0.6,-4.424 C 8.283,2.641 7.677,1.487 6.863,0.528 6.05,-0.431 5.025,-1.171 3.787,-1.692 2.549,-2.214 1.141,-2.476 -0.437,-2.476 c -2.354,0 -4.211,0.353 -5.57,1.056"
         style="fill:#3c4552;fill-opacity:1;fill-rule:nonzero;stroke:none"
         id="path78"
         inkscape:connector-curvature="0" /></g><path
       d="m 1055.8155,84.998328 h 3.7866 v 26.409332 h -3.7866 z m -1.068,-7.721334 c 0,-0.776 0.2666,-1.430666 0.8013,-1.965333 0.5333,-0.534666 1.1733,-0.801333 1.9173,-0.801333 0.776,0 1.4387,0.266667 1.9894,0.801333 0.552,0.534667 0.8266,1.189333 0.8266,1.965333 0,0.777334 -0.2746,1.425334 -0.8266,1.944 -0.5507,0.517334 -1.2134,0.776 -1.9894,0.776 -0.744,0 -1.384,-0.268 -1.9173,-0.801333 -0.5347,-0.533333 -0.8013,-1.173333 -0.8013,-1.918667"
       style="display:inline;fill:#3c4552;fill-opacity:1;fill-rule:nonzero;stroke:none;stroke-width:1.33333325"
       id="path80"
       inkscape:connector-curvature="0" /><g
       style="display:inline"
       id="g82"
       transform="matrix(1.3333333,0,0,-1.3333333,1076.1553,111.64873)"><path
         d="m 0,0 c -3.374,0 -5.062,1.82 -5.062,5.461 v 12.234 h -2.949 v 1.821 l 2.949,0.546 0.875,5.133 h 1.929 V 19.988 H 3.204 V 17.695 H -2.258 V 5.606 c 0,-1.068 0.255,-1.856 0.765,-2.366 0.51,-0.51 1.214,-0.764 2.112,-0.764 1.286,0 2.294,0.23 3.022,0.691 L 4.441,0.91 C 3.373,0.303 1.894,0 0,0"
         style="fill:#3c4552;fill-opacity:1;fill-rule:nonzero;stroke:none"
         id="path84"
         inkscape:connector-curvature="0" /></g><g
       style="display:inline"
       id="g86"
       transform="matrix(1.3333333,0,0,-1.3333333,1096.5447,87.81273)"><path
         d="m 0,0 c -1.044,0 -1.948,-0.249 -2.713,-0.746 -0.765,-0.498 -1.371,-1.215 -1.82,-2.149 -0.449,-0.934 -0.71,-2.106 -0.783,-3.513 h 9.94 L 4.66,-5.279 C 4.66,-1.76 3.106,0 0,0 m 5.498,-13.981 1.274,-2.185 C 6.068,-16.7 5.182,-17.131 4.114,-17.459 3.046,-17.786 1.856,-17.95 0.546,-17.95 c -2.889,0 -5.061,0.812 -6.518,2.439 -1.456,1.626 -2.184,4.236 -2.184,7.828 0,1.7 0.224,3.204 0.674,4.515 0.449,1.311 1.061,2.373 1.838,3.187 0.777,0.812 1.675,1.419 2.695,1.82 1.019,0.4 2.087,0.6 3.204,0.6 2.306,0 4.084,-0.698 5.334,-2.093 1.25,-1.396 1.875,-3.284 1.875,-5.661 0,-0.997 -0.072,-2.137 -0.219,-3.423 H -5.353 c 0.122,-2.379 0.693,-4.097 1.712,-5.153 1.019,-1.055 2.537,-1.584 4.551,-1.584 0.68,0 1.462,0.121 2.349,0.365 0.886,0.242 1.632,0.619 2.239,1.129"
         style="fill:#3c4552;fill-opacity:1;fill-rule:nonzero;stroke:none"
         id="path88"
         inkscape:connector-curvature="0" /></g><g
       style="display:inline"
       id="g90"
       transform="matrix(1.3333333,0,0,-1.3333333,1112.0303,98.59019)"><path
         d="m 0,0 c 0,1.748 0.206,3.295 0.619,4.643 0.413,1.346 0.995,2.451 1.748,3.312 0.752,0.861 1.644,1.505 2.676,1.931 1.031,0.424 2.154,0.636 3.368,0.636 1.068,0 2.117,-0.169 3.15,-0.509 1.031,-0.34 1.862,-0.863 2.494,-1.566 L 12.161,6.372 C 11.117,7.464 9.818,8.01 8.266,8.01 6.591,8.01 5.279,7.396 4.333,6.172 3.387,4.945 2.913,3.01 2.913,0.364 c 0,-5.195 1.784,-7.792 5.353,-7.792 1.65,0 2.936,0.522 3.859,1.566 l 1.747,-1.966 C 13.217,-8.581 12.361,-9.121 11.306,-9.448 10.25,-9.776 9.151,-9.94 8.011,-9.94 6.141,-9.94 4.624,-9.539 3.459,-8.738 2.294,-7.937 1.426,-6.821 0.856,-5.389 0.285,-3.957 0,-2.161 0,0"
         style="fill:#3c4552;fill-opacity:1;fill-rule:nonzero;stroke:none"
         id="path92"
         inkscape:connector-curvature="0" /></g><g
       style="display:inline"
       id="g94"
       transform="matrix(1.3333333,0,0,-1.3333333,1147.9548,84.56019)"><path
         d="m 0,0 c 1.918,0 3.441,-0.577 4.57,-1.729 1.128,-1.154 1.693,-2.725 1.693,-4.715 v -13.691 h -2.84 v 13.253 c 0,0.923 -0.189,1.736 -0.565,2.44 -0.376,0.704 -0.874,1.202 -1.492,1.493 -0.619,0.291 -1.269,0.436 -1.948,0.436 -0.607,0 -1.274,-0.121 -2.003,-0.363 -0.728,-0.243 -1.39,-0.662 -1.984,-1.257 -0.595,-0.595 -1.026,-1.22 -1.292,-1.875 v -14.127 h -2.84 V 7.5 h 2.84 V -2.513 h 0.145 c 0.679,0.826 1.529,1.451 2.549,1.876 C -2.147,-0.213 -1.092,0 0,0"
         style="fill:#3c4552;fill-opacity:1;fill-rule:nonzero;stroke:none"
         id="path96"
         inkscape:connector-curvature="0" /></g><g
       style="display:inline"
       id="g98"
       transform="matrix(1.3333333,0,0,-1.3333333,1162.6149,108.49379)"><path
         d="M 0,0 C 0,0.631 0.212,1.171 0.638,1.62 1.062,2.069 1.578,2.294 2.185,2.294 2.84,2.294 3.387,2.075 3.823,1.639 4.26,1.201 4.479,0.655 4.479,0 c 0,-0.607 -0.225,-1.123 -0.674,-1.548 -0.45,-0.425 -0.99,-0.637 -1.62,-0.637 -0.582,0 -1.092,0.219 -1.53,0.656 C 0.219,-1.092 0,-0.583 0,0"
         style="fill:#3c4552;fill-opacity:1;fill-rule:nonzero;stroke:none"
         id="path100"
         inkscape:connector-curvature="0" /></g><g
       style="display:inline"
       id="g102"
       transform="matrix(1.3333333,0,0,-1.3333333,1199.7035,104.02766)"><path
         d="m 0,0 c 0,0.461 -0.194,0.893 -0.582,1.293 -0.389,0.4 -1.227,0.849 -2.513,1.347 -1.286,0.497 -2.135,0.825 -2.549,0.983 -0.413,0.157 -0.873,0.395 -1.382,0.71 -0.51,0.315 -0.948,0.655 -1.312,1.02 -0.363,0.364 -0.697,0.849 -1.001,1.456 -0.304,0.606 -0.455,1.359 -0.455,2.257 0,0.582 0.109,1.207 0.328,1.875 0.218,0.667 0.607,1.305 1.165,1.912 0.558,0.606 1.322,1.134 2.294,1.584 0.97,0.449 2.148,0.673 3.531,0.673 1.505,0 2.846,-0.236 4.024,-0.71 1.177,-0.473 2.105,-1.098 2.785,-1.875 L 1.457,9.612 c -0.462,0.51 -1.051,0.941 -1.766,1.293 -0.716,0.352 -1.474,0.528 -2.276,0.528 -0.874,0 -1.554,-0.201 -2.039,-0.601 -0.485,-0.4 -0.728,-0.904 -0.728,-1.511 0,-0.437 0.188,-0.868 0.565,-1.293 C -4.411,7.604 -3.344,7.069 -1.583,6.427 0.176,5.783 1.426,5.194 2.167,4.66 2.907,4.126 3.478,3.508 3.878,2.804 4.278,2.1 4.479,1.25 4.479,0.255 4.479,-0.861 4.157,-1.894 3.514,-2.84 2.87,-3.786 1.984,-4.533 0.856,-5.079 -0.272,-5.625 -1.638,-5.898 -3.24,-5.898 c -0.899,0 -1.875,0.109 -2.931,0.328 -1.056,0.217 -2.016,0.569 -2.877,1.055 -0.861,0.486 -1.547,0.984 -2.056,1.494 l 2.694,3.167 c 0.582,-0.631 1.352,-1.19 2.311,-1.675 0.959,-0.486 1.985,-0.728 3.078,-0.728 0.995,0 1.747,0.212 2.256,0.637 C -0.255,-1.195 0,-0.655 0,0"
         style="fill:#3c4552;fill-opacity:1;fill-rule:nonzero;stroke:none"
         id="path104"
         inkscape:connector-curvature="0" /></g><g
       style="display:inline"
       id="g106"
       transform="matrix(1.3333333,0,0,-1.3333333,1216.0655,97.71646)"><path
         d="m 0,0 c 0,-2.354 0.346,-4.114 1.037,-5.279 0.692,-1.165 1.815,-1.748 3.368,-1.748 1.553,0 2.652,0.547 3.295,1.638 0.643,1.093 0.965,2.804 0.965,5.134 0,2.379 -0.352,4.145 -1.056,5.298 C 6.905,6.195 5.765,6.772 4.187,6.772 2.73,6.772 1.668,6.22 1.001,5.115 0.333,4.011 0,2.306 0,0 m 4.223,-10.632 c -1.991,0 -3.629,0.376 -4.915,1.129 -1.287,0.752 -2.264,1.875 -2.931,3.368 -0.668,1.492 -1.002,3.465 -1.002,5.916 0,2.428 0.358,4.412 1.074,5.953 0.716,1.541 1.73,2.701 3.041,3.478 1.311,0.776 2.949,1.165 4.915,1.165 1.214,0 2.372,-0.164 3.478,-0.491 1.103,-0.328 2.056,-0.893 2.857,-1.694 0.802,-0.8 1.42,-1.863 1.858,-3.185 0.436,-1.323 0.655,-3.004 0.655,-5.043 0,-1.578 -0.17,-3.017 -0.51,-4.315 -0.34,-1.298 -0.874,-2.416 -1.602,-3.349 -0.728,-0.936 -1.675,-1.657 -2.84,-2.167 -1.165,-0.51 -2.525,-0.765 -4.078,-0.765"
         style="fill:#3c4552;fill-opacity:1;fill-rule:nonzero;stroke:none"
         id="path108"
         inkscape:connector-curvature="0" /></g><g
       style="display:inline"
       id="g110"
       transform="matrix(1.3333333,0,0,-1.3333333,1239.5616,74.60833)"><path
         d="m 0,0 h 4.478 v -21.81 c 0,-1.456 0.619,-2.184 1.857,-2.184 0.436,0 0.801,0.06 1.092,0.182 v -3.605 c -0.752,-0.314 -1.615,-0.473 -2.585,-0.473 -1.529,0 -2.719,0.431 -3.568,1.292 C 0.424,-25.736 0,-24.528 0,-22.975 Z"
         style="fill:#3c4552;fill-opacity:1;fill-rule:nonzero;stroke:none"
         id="path112"
         inkscape:connector-curvature="0" /></g><g
       style="display:inline"
       id="g114"
       transform="matrix(1.3333333,0,0,-1.3333333,1254.0759,102.62006)"><path
         d="M 0,0 V 13.69 H 4.515 V 0.547 c 0,-1.312 0.297,-2.301 0.892,-2.968 0.595,-0.668 1.45,-1.001 2.567,-1.001 0.583,0 1.183,0.121 1.802,0.364 0.62,0.243 1.135,0.643 1.547,1.202 0.413,0.557 0.668,1.152 0.765,1.784 V 13.69 h 4.478 V -6.59 h -3.713 l -0.692,1.966 H 12.016 C 11.481,-5.304 10.753,-5.868 9.831,-6.316 8.908,-6.766 7.804,-6.99 6.518,-6.99 2.196,-6.99 0.024,-4.66 0,0"
         style="fill:#3c4552;fill-opacity:1;fill-rule:nonzero;stroke:none"
         id="path116"
         inkscape:connector-curvature="0" /></g><g
       style="display:inline"
       id="g118"
       transform="matrix(1.3333333,0,0,-1.3333333,1291.6019,111.64873)"><path
         d="M 0,0 C -1.796,0 -3.191,0.503 -4.187,1.511 -5.183,2.518 -5.68,4.102 -5.68,6.262 v 10.741 h -2.767 v 2.804 l 2.767,0.91 1.493,4.952 h 2.913 v -5.207 h 5.28 v -3.459 h -5.28 V 6.262 c 0,-0.85 0.218,-1.487 0.655,-1.911 0.437,-0.425 1.032,-0.637 1.784,-0.637 0.534,0 1.062,0.078 1.584,0.236 0.522,0.157 0.952,0.358 1.293,0.601 L 5.243,1.128 C 4.078,0.376 2.33,0 0,0"
         style="fill:#3c4552;fill-opacity:1;fill-rule:nonzero;stroke:none"
         id="path120"
         inkscape:connector-curvature="0" /></g><path
       d="m 1303.0581,84.366328 h 5.972 v 27.040002 h -5.972 z m -0.776,-7.330667 c 0,-1.068 0.3467,-1.966667 1.0427,-2.694666 0.696,-0.729334 1.5453,-1.092 2.5493,-1.092 1.068,0 1.9574,0.362666 2.6694,1.092 0.712,0.727999 1.0693,1.626666 1.0693,2.694666 0,1.004 -0.3573,1.845333 -1.0693,2.524 -0.712,0.68 -1.6014,1.02 -2.6694,1.02 -0.972,0 -1.812,-0.348 -2.5253,-1.044 -0.712,-0.696 -1.0667,-1.529333 -1.0667,-2.5"
       style="display:inline;fill:#3c4552;fill-opacity:1;fill-rule:nonzero;stroke:none;stroke-width:1.33333325"
       id="path122"
       inkscape:connector-curvature="0" /><g
       style="display:inline"
       id="g124"
       transform="matrix(1.3333333,0,0,-1.3333333,1321.4092,97.71646)"><path
         d="m 0,0 c 0,-2.354 0.346,-4.114 1.037,-5.279 0.692,-1.165 1.815,-1.748 3.368,-1.748 1.553,0 2.652,0.547 3.295,1.638 0.643,1.093 0.965,2.804 0.965,5.134 0,2.379 -0.352,4.145 -1.056,5.298 C 6.905,6.195 5.765,6.772 4.187,6.772 2.73,6.772 1.668,6.22 1.001,5.115 0.333,4.011 0,2.306 0,0 m 4.223,-10.632 c -1.991,0 -3.629,0.376 -4.915,1.129 -1.287,0.752 -2.264,1.875 -2.931,3.368 -0.668,1.492 -1.002,3.465 -1.002,5.916 0,2.428 0.358,4.412 1.074,5.953 0.716,1.541 1.73,2.701 3.041,3.478 1.311,0.776 2.949,1.165 4.915,1.165 1.214,0 2.372,-0.164 3.478,-0.491 1.103,-0.328 2.056,-0.893 2.857,-1.694 0.802,-0.8 1.42,-1.863 1.858,-3.185 0.436,-1.323 0.655,-3.004 0.655,-5.043 0,-1.578 -0.17,-3.017 -0.51,-4.315 -0.34,-1.298 -0.874,-2.416 -1.602,-3.349 -0.728,-0.936 -1.675,-1.657 -2.84,-2.167 -1.165,-0.51 -2.525,-0.765 -4.078,-0.765"
         style="fill:#3c4552;fill-opacity:1;fill-rule:nonzero;stroke:none"
         id="path126"
         inkscape:connector-curvature="0" /></g><g
       style="display:inline"
       id="g128"
       transform="matrix(1.3333333,0,0,-1.3333333,1366.7516,92.71646)"><path
         d="m 0,0 v -14.018 h -4.515 v 13.036 c 0,1.212 -0.291,2.16 -0.874,2.839 -0.582,0.679 -1.408,1.02 -2.475,1.02 -0.923,0 -1.754,-0.268 -2.494,-0.802 -0.741,-0.534 -1.281,-1.214 -1.621,-2.038 v -14.055 h -4.478 V 6.263 h 3.459 l 0.91,-2.002 h 0.146 c 0.534,0.655 1.31,1.231 2.33,1.729 1.019,0.497 2.099,0.746 3.241,0.746 2.039,0 3.604,-0.564 4.696,-1.693 C -0.582,3.914 -0.024,2.233 0,0"
         style="fill:#3c4552;fill-opacity:1;fill-rule:nonzero;stroke:none"
         id="path130"
         inkscape:connector-curvature="0" /></g><g
       style="display:inline"
       id="g132"
       transform="matrix(1.3333333,0,0,-1.3333333,1385.8297,104.02766)"><path
         d="m 0,0 c 0,0.461 -0.194,0.893 -0.582,1.293 -0.389,0.4 -1.227,0.849 -2.513,1.347 -1.286,0.497 -2.135,0.825 -2.549,0.983 -0.413,0.157 -0.873,0.395 -1.382,0.71 -0.51,0.315 -0.948,0.655 -1.312,1.02 -0.363,0.364 -0.697,0.849 -1.001,1.456 -0.304,0.606 -0.455,1.359 -0.455,2.257 0,0.582 0.109,1.207 0.328,1.875 0.218,0.667 0.607,1.305 1.165,1.912 0.558,0.606 1.322,1.134 2.294,1.584 0.97,0.449 2.148,0.673 3.531,0.673 1.505,0 2.846,-0.236 4.024,-0.71 1.177,-0.473 2.105,-1.098 2.785,-1.875 L 1.457,9.612 c -0.462,0.51 -1.051,0.941 -1.766,1.293 -0.716,0.352 -1.474,0.528 -2.276,0.528 -0.874,0 -1.554,-0.201 -2.039,-0.601 -0.485,-0.4 -0.728,-0.904 -0.728,-1.511 0,-0.437 0.188,-0.868 0.565,-1.293 C -4.411,7.604 -3.344,7.069 -1.583,6.427 0.176,5.783 1.426,5.194 2.167,4.66 2.907,4.126 3.478,3.508 3.878,2.804 4.278,2.1 4.479,1.25 4.479,0.255 4.479,-0.861 4.157,-1.894 3.514,-2.84 2.87,-3.786 1.984,-4.533 0.856,-5.079 -0.272,-5.625 -1.638,-5.898 -3.24,-5.898 c -0.899,0 -1.875,0.109 -2.931,0.328 -1.056,0.217 -2.016,0.569 -2.877,1.055 -0.861,0.486 -1.547,0.984 -2.056,1.494 l 2.694,3.167 c 0.582,-0.631 1.352,-1.19 2.311,-1.675 0.959,-0.486 1.985,-0.728 3.078,-0.728 0.995,0 1.747,0.212 2.256,0.637 C -0.255,-1.195 0,-0.655 0,0"
         style="fill:#3c4552;fill-opacity:1;fill-rule:nonzero;stroke:none"
         id="path134"
         inkscape:connector-curvature="0" /></g><g
       style="display:inline"
       id="g136"
       transform="matrix(1.3333333,0,0,-1.3333333,1396.2674,107.66833)"><path
         d="m 0,0 c 0,0.874 0.297,1.614 0.892,2.221 0.594,0.606 1.316,0.91 2.167,0.91 0.412,0 0.861,-0.104 1.346,-0.31 C 4.891,2.615 5.304,2.251 5.644,1.729 5.983,1.207 6.153,0.631 6.153,0 6.153,-0.825 5.85,-1.535 5.243,-2.13 4.636,-2.726 3.908,-3.022 3.059,-3.022 2.208,-3.022 1.486,-2.726 0.892,-2.13 0.297,-1.535 0,-0.825 0,0"
         style="fill:#3c4552;fill-opacity:1;fill-rule:nonzero;stroke:none"
         id="path138"
         inkscape:connector-curvature="0" /></g></g><g
     inkscape:groupmode="layer"
     id="layer3"
     inkscape:label="engineering"
     style="display:inline"><g
       style="display:inline"
       id="g3167"
       transform="translate(373.23815,257.10499)"><text
         transform="scale(0.98828458,1.0118543)"
         id="text885"
         y="391.13626"
         x="762.63617"
         style="font-style:normal;font-variant:normal;font-weight:bold;font-stretch:normal;font-size:47.02132797px;line-height:1.25;font-family:'Kohinoor Devanagari';-inkscape-font-specification:'Kohinoor Devanagari, Bold';font-variant-ligatures:normal;font-variant-caps:normal;font-variant-numeric:normal;font-feature-settings:normal;text-align:start;letter-spacing:0px;word-spacing:0px;writing-mode:lr-tb;text-anchor:start;display:inline;fill:#36444c;fill-opacity:1;stroke:none;stroke-width:1.17552912"
         xml:space="preserve"><tspan
           style="font-style:normal;font-variant:normal;font-weight:bold;font-stretch:normal;font-size:47.02132797px;font-family:'Kohinoor Devanagari';-inkscape-font-specification:'Kohinoor Devanagari, Bold';font-variant-ligatures:normal;font-variant-caps:normal;font-variant-numeric:normal;font-feature-settings:normal;text-align:start;writing-mode:lr-tb;text-anchor:start;fill:#36444c;fill-opacity:1;stroke-width:1.17552912"
           y="391.13626"
           x="762.63617"
           id="tspan883"
           sodipodi:role="line">engineering.</tspan></text>
</g></g></svg>